<svg id="svg" version="1.1" xmlns="http://www.w3.org/2000/svg" xmlns:xlink="http://www.w3.org/1999/xlink" width="400" height="298.80668257756565" viewBox="0, 0, 400,298.80668257756565"><g id="svgg"><path id="path0" d="M197.160 10.166 C 157.862 10.250,125.441 10.426,125.112 10.556 C 123.547 11.176,123.629 8.786,123.468 58.744 L 123.318 105.082 120.329 105.243 C 115.262 105.515,112.726 107.565,111.977 111.996 C 111.596 114.251,114.070 119.283,115.560 119.283 C 117.181 119.283,117.593 120.747,118.504 129.746 C 118.745 132.130,119.018 134.283,119.110 134.529 C 119.202 134.776,119.408 136.794,119.568 139.013 C 119.975 144.655,120.695 151.737,121.042 153.513 C 121.308 154.870,121.670 157.763,122.593 165.919 C 123.164 170.959,123.745 176.451,124.064 179.821 C 124.813 187.720,125.767 189.862,129.596 192.234 L 130.792 192.975 147.431 193.063 L 164.071 193.152 164.529 194.118 C 164.929 194.961,165.135 196.255,165.832 202.304 C 166.023 203.956,167.427 203.821,147.833 204.035 C 129.798 204.232,129.360 204.271,128.003 205.817 C 125.399 208.783,127.389 215.546,130.865 215.546 C 131.163 215.546,131.672 215.728,131.996 215.950 C 132.321 216.172,133.553 216.442,134.735 216.548 C 135.917 216.655,137.195 216.858,137.575 217.001 C 137.955 217.143,140.889 217.352,144.096 217.466 C 149.828 217.669,151.419 217.937,153.214 219.005 C 153.543 219.201,154.169 219.444,154.606 219.545 C 155.043 219.646,156.456 220.503,157.745 221.449 C 162.517 224.950,164.059 225.715,168.224 226.647 C 170.569 227.172,170.427 226.013,170.336 243.897 L 170.254 260.061 169.186 261.197 C 166.937 263.588,166.218 265.642,166.218 269.673 C 166.218 273.731,167.425 273.377,153.243 273.482 C 138.389 273.593,138.270 273.627,138.346 277.711 C 138.379 279.483,138.258 280.012,137.508 281.371 C 136.343 283.484,136.348 284.931,137.524 286.667 C 138.014 287.390,138.416 288.143,138.416 288.339 C 138.416 289.393,140.991 291.180,142.511 291.182 C 144.407 291.184,147.085 288.863,147.085 287.219 C 147.085 286.976,147.371 286.414,147.720 285.970 C 148.281 285.257,148.331 284.928,148.154 283.128 C 147.906 280.616,147.708 280.717,152.879 280.717 C 157.553 280.717,157.636 280.762,157.063 282.958 C 156.597 284.744,156.852 285.913,157.862 286.620 C 158.183 286.845,158.446 287.324,158.447 287.685 C 158.461 292.096,165.752 292.347,167.237 287.987 C 167.500 287.215,168.002 286.278,168.351 285.906 C 168.993 285.223,169.033 283.589,168.453 281.708 C 168.279 281.144,168.388 281.032,169.253 280.885 C 171.169 280.560,186.105 281.132,186.028 281.528 C 185.511 284.170,185.585 285.187,186.358 286.106 C 186.791 286.621,187.145 287.371,187.145 287.774 C 187.145 288.769,189.495 291.103,190.627 291.233 C 193.151 291.522,195.401 290.152,196.070 287.920 C 196.270 287.253,196.709 286.559,197.045 286.379 C 197.682 286.038,197.751 283.410,197.169 281.689 L 196.941 281.016 200.715 281.016 L 204.488 281.016 204.296 283.085 C 204.126 284.914,204.178 285.247,204.743 285.965 C 205.094 286.412,205.381 287.020,205.381 287.318 C 205.381 292.071,212.484 292.456,214.368 287.804 C 214.625 287.171,215.028 286.533,215.265 286.386 C 216.099 285.871,215.830 282.569,214.828 281.026 C 214.075 279.866,213.969 279.439,214.022 277.785 C 214.160 273.537,214.127 273.528,198.871 273.355 C 192.036 273.278,186.332 273.146,186.196 273.062 C 186.060 272.978,185.949 271.650,185.949 270.110 C 185.949 265.386,185.259 263.408,182.689 260.771 L 181.460 259.509 181.537 243.432 L 181.614 227.354 186.398 227.154 C 189.028 227.043,191.560 226.808,192.022 226.630 C 192.485 226.453,193.133 226.308,193.462 226.308 C 193.790 226.308,194.757 225.978,195.610 225.574 C 197.086 224.875,197.968 224.248,200.937 221.788 C 203.909 219.326,207.784 218.385,216.857 217.920 C 220.127 217.752,223.077 217.468,223.413 217.289 C 223.749 217.109,225.100 216.842,226.415 216.694 C 227.730 216.547,228.951 216.313,229.127 216.175 C 229.303 216.036,229.964 215.829,230.596 215.715 C 231.792 215.500,234.724 214.050,235.678 213.202 C 238.254 210.913,237.730 206.401,234.679 204.609 C 233.782 204.082,227.598 203.841,209.865 203.642 C 199.918 203.530,191.644 203.383,191.480 203.315 C 191.315 203.247,190.802 203.348,190.339 203.539 C 189.777 203.771,187.027 203.886,182.065 203.886 C 173.752 203.886,173.701 203.874,173.682 201.847 C 173.676 201.242,173.479 199.873,173.244 198.804 C 172.765 196.630,172.675 194.076,173.055 193.476 C 173.474 192.815,204.386 193.094,205.415 193.768 C 206.126 194.234,206.343 194.221,209.139 193.549 C 215.794 191.950,218.277 185.290,216.163 174.708 C 216.002 173.903,215.732 171.360,215.564 169.058 C 215.395 166.756,215.118 163.864,214.948 162.631 C 214.777 161.398,214.577 158.169,214.504 155.456 C 214.324 148.857,213.838 142.127,213.436 140.658 C 213.041 139.219,212.144 132.212,211.695 127.055 C 211.140 120.694,210.536 115.038,210.187 112.923 C 209.941 111.437,209.940 110.733,210.184 110.278 L 210.516 109.657 240.310 109.846 C 256.697 109.951,270.678 110.107,271.379 110.194 C 274.142 110.536,273.843 116.535,273.831 61.041 L 273.820 12.108 273.158 11.324 C 272.218 10.211,271.380 9.855,269.900 9.939 C 269.190 9.980,236.457 10.082,197.160 10.166 M264.408 15.911 C 265.037 16.810,265.127 102.384,264.499 103.228 C 264.155 103.690,261.549 103.745,231.241 103.922 C 201.548 104.096,198.302 104.162,197.801 104.599 C 196.832 105.444,136.532 105.483,135.809 104.638 C 135.366 104.121,134.929 104.036,132.726 104.036 C 131.035 104.036,129.970 103.897,129.604 103.630 C 129.068 103.238,129.044 101.688,128.916 59.865 L 128.784 16.507 129.415 15.877 L 130.045 15.247 196.994 15.247 L 263.942 15.247 264.408 15.911 M204.484 32.897 C 201.806 33.516,200.741 33.838,200.384 34.135 C 200.171 34.311,199.560 34.560,199.027 34.686 C 198.493 34.813,206.478 34.930,216.770 34.947 C 234.541 34.976,235.508 34.950,235.978 34.431 C 236.668 33.668,236.594 32.987,235.800 32.774 C 234.789 32.504,205.692 32.617,204.484 32.897 M188.939 40.476 C 188.939 41.924,187.734 41.854,212.600 41.854 C 235.253 41.854,236.472 41.802,236.472 40.843 C 236.472 39.434,236.966 39.462,212.159 39.462 L 188.939 39.462 188.939 40.476 M189.088 58.505 C 188.181 58.718,187.709 59.467,188.064 60.131 C 188.510 60.964,234.900 61.004,235.871 60.173 C 236.667 59.491,236.634 58.708,235.800 58.484 C 235.020 58.275,189.984 58.296,189.088 58.505 M185.701 65.433 C 185.475 65.576,185.346 66.059,185.402 66.550 L 185.501 67.414 210.730 67.414 C 238.348 67.414,237.558 67.465,236.040 65.787 C 235.447 65.133,186.716 64.790,185.701 65.433 M39.217 90.831 C 37.629 92.052,38.370 95.366,40.231 95.366 C 41.530 95.366,42.242 94.313,42.081 92.631 C 41.874 90.476,40.665 89.716,39.217 90.831 M208.670 92.101 C 204.723 92.411,199.749 92.893,196.562 93.273 C 195.082 93.450,192.862 93.707,191.629 93.844 C 190.255 93.997,198.311 94.108,212.435 94.132 C 234.411 94.169,235.506 94.145,235.978 93.624 C 236.668 92.861,236.594 92.180,235.800 91.967 C 234.862 91.716,212.138 91.828,208.670 92.101 " stroke="none" fill="#2d3649" fill-rule="evenodd"></path><path id="path1" d="M161.534 10.090 C 181.237 10.132,213.389 10.132,232.984 10.090 C 252.578 10.047,236.457 10.012,197.160 10.012 C 157.862 10.013,141.831 10.047,161.534 10.090 M273.987 61.136 C 273.987 87.773,274.023 98.625,274.066 85.253 C 274.109 71.881,274.109 50.087,274.066 36.822 C 274.023 23.558,273.987 34.499,273.987 61.136 M163.453 15.471 C 181.910 15.513,212.111 15.513,230.568 15.471 C 249.025 15.428,233.924 15.394,197.010 15.394 C 160.097 15.394,144.996 15.428,163.453 15.471 M128.991 37.220 C 128.991 48.729,129.028 53.394,129.073 47.586 C 129.119 41.778,129.119 32.361,129.073 26.660 C 129.028 20.958,128.991 25.710,128.991 37.220 M264.719 59.641 C 264.719 83.483,264.755 93.192,264.798 81.217 C 264.841 69.242,264.841 49.736,264.798 37.869 C 264.755 26.002,264.719 35.800,264.719 59.641 M172.136 32.024 C 172.046 32.292,170.532 32.409,166.500 32.462 C 163.343 32.503,160.411 32.690,159.641 32.898 C 158.901 33.099,157.825 33.293,157.250 33.331 C 156.674 33.368,155.732 33.686,155.157 34.038 C 154.581 34.389,153.976 34.677,153.812 34.678 C 153.346 34.682,149.707 36.571,148.297 37.542 C 139.016 43.930,136.640 58.043,142.883 69.699 C 148.888 80.912,152.200 83.132,161.022 81.857 C 162.965 81.576,164.068 81.582,166.284 81.886 C 170.615 82.481,172.077 81.921,176.338 78.035 C 179.242 75.386,179.496 75.227,180.440 75.465 C 182.166 75.898,180.551 79.603,176.977 83.408 C 173.871 86.716,173.692 87.122,173.692 90.882 C 173.692 96.466,171.692 98.219,165.601 97.970 C 160.539 97.764,158.265 96.680,157.495 94.108 C 157.035 92.575,156.914 92.600,151.362 95.366 C 148.722 96.682,146.438 97.758,146.286 97.758 C 145.982 97.758,140.271 100.686,139.773 101.097 C 138.143 102.444,137.726 102.980,137.699 103.763 C 137.665 104.711,137.207 104.891,136.622 104.185 C 136.327 103.830,135.587 103.750,133.073 103.798 L 129.895 103.860 132.575 103.960 C 134.776 104.043,135.354 104.167,135.805 104.651 C 136.613 105.518,196.863 105.429,197.825 104.559 C 198.362 104.073,199.890 104.031,219.605 103.966 L 240.807 103.896 218.632 103.742 L 196.456 103.587 195.612 102.920 C 192.054 100.106,185.025 96.120,182.510 95.489 C 181.534 95.244,181.251 94.762,181.878 94.412 C 182.151 94.259,182.296 94.007,182.201 93.853 C 181.937 93.426,181.178 93.517,180.658 94.038 C 180.390 94.306,179.986 94.418,179.707 94.303 C 179.441 94.193,178.498 93.907,177.612 93.668 C 174.732 92.891,174.589 92.704,174.589 89.704 L 174.589 87.099 175.705 86.225 C 176.319 85.745,177.800 84.354,178.998 83.136 C 181.780 80.304,181.464 80.367,194.021 80.146 C 203.778 79.975,204.036 79.955,204.036 79.372 C 204.036 78.792,203.787 78.770,195.516 78.625 C 189.490 78.519,186.804 78.366,186.343 78.102 C 185.983 77.896,185.303 77.728,184.830 77.728 C 183.114 77.728,182.810 77.184,183.222 74.855 C 183.423 73.722,183.723 71.790,183.888 70.560 C 184.054 69.331,184.350 68.223,184.546 68.099 C 184.742 67.974,196.338 67.837,210.314 67.795 L 235.725 67.718 210.613 67.566 L 185.501 67.414 185.409 66.468 C 185.335 65.703,185.448 65.480,186.002 65.305 L 186.687 65.087 186.022 64.841 C 185.308 64.577,185.361 64.187,186.380 62.217 C 187.040 60.941,186.051 60.992,211.609 60.914 L 235.426 60.841 211.893 60.762 C 189.319 60.687,188.348 60.661,188.063 60.129 C 187.130 58.386,186.267 58.445,212.354 58.445 C 225.423 58.445,235.961 58.347,235.771 58.226 C 235.581 58.105,225.194 58.004,212.688 58.002 C 186.759 57.996,188.430 58.164,189.312 55.662 C 190.170 53.231,189.792 49.946,188.341 47.236 C 188.064 46.718,188.132 46.157,188.686 44.372 L 189.375 42.152 212.400 42.081 L 235.426 42.010 212.257 41.853 C 199.514 41.766,189.055 41.663,189.013 41.625 C 188.493 41.136,189.042 39.486,189.761 39.377 C 190.463 39.271,190.428 39.246,189.524 39.208 C 188.699 39.173,188.181 38.873,187.175 37.849 C 186.452 37.112,185.490 36.455,184.986 36.354 C 184.491 36.255,183.634 35.777,183.081 35.292 C 182.528 34.806,181.568 34.327,180.948 34.227 C 177.805 33.718,172.904 32.460,172.601 32.084 C 172.346 31.767,172.226 31.751,172.136 32.024 M210.463 32.501 C 220.497 32.705,236.085 32.715,235.772 32.516 C 235.582 32.395,228.901 32.324,220.927 32.357 C 212.952 32.391,208.244 32.455,210.463 32.501 M200.000 33.931 C 199.589 34.166,198.984 34.365,198.655 34.374 C 198.326 34.382,197.855 34.526,197.608 34.694 C 196.832 35.223,199.445 34.648,200.593 34.037 C 201.167 33.732,201.436 33.488,201.191 33.493 C 200.947 33.499,200.411 33.696,200.000 33.931 M208.595 35.202 C 213.404 35.248,221.274 35.248,226.084 35.202 C 230.893 35.155,226.958 35.118,217.339 35.118 C 207.720 35.118,203.786 35.155,208.595 35.202 M81.212 44.170 C 78.993 46.338,76.382 50.759,76.049 52.915 C 75.548 56.153,82.515 57.266,84.365 54.243 C 86.616 50.567,86.502 47.432,84.023 44.860 C 82.324 43.098,82.313 43.095,81.212 44.170 M128.984 72.197 C 128.984 78.117,129.024 80.580,129.073 77.673 C 129.122 74.765,129.122 69.922,129.073 66.910 C 129.024 63.899,128.984 66.278,128.984 72.197 M128.918 84.305 C 128.918 84.880,128.980 85.116,129.055 84.828 C 129.130 84.540,129.130 84.070,129.055 83.782 C 128.980 83.494,128.918 83.729,128.918 84.305 M339.006 91.638 C 338.695 92.013,336.630 92.078,324.961 92.078 C 311.610 92.078,311.277 92.092,311.127 92.666 C 310.976 93.244,311.231 93.255,326.612 93.338 L 342.251 93.423 343.545 94.332 C 347.120 96.846,347.620 101.869,344.618 105.129 C 342.480 107.450,343.767 107.324,322.189 107.324 C 305.750 107.324,302.755 107.390,301.842 107.772 C 301.117 108.075,299.827 108.210,297.845 108.190 C 293.471 108.145,291.222 109.608,290.130 113.207 C 288.398 118.915,291.876 123.767,297.700 123.767 C 300.344 123.767,300.099 123.119,297.299 122.708 C 290.079 121.646,288.685 112.711,295.214 109.348 C 296.396 108.739,296.639 108.735,323.059 108.851 C 347.309 108.958,349.762 108.925,350.267 108.484 C 350.572 108.218,351.519 107.912,352.371 107.804 C 362.524 106.521,362.271 93.492,352.079 92.757 C 350.367 92.633,349.653 92.454,349.388 92.081 C 348.872 91.355,339.571 90.958,339.006 91.638 M216.891 91.690 C 224.222 91.897,236.086 91.908,235.772 91.709 C 235.582 91.588,230.583 91.515,224.664 91.547 C 218.744 91.580,215.247 91.644,216.891 91.690 M208.146 91.997 C 208.763 92.061,209.772 92.061,210.389 91.997 C 211.005 91.932,210.501 91.879,209.268 91.879 C 208.034 91.879,207.530 91.932,208.146 91.997 M201.196 92.406 C 199.469 92.541,197.317 92.786,196.413 92.950 C 195.508 93.114,193.289 93.342,191.480 93.456 C 189.671 93.571,187.855 93.778,187.444 93.916 C 186.654 94.183,189.185 94.051,193.722 93.588 C 195.120 93.446,197.945 93.171,200.000 92.977 C 204.327 92.570,207.111 92.144,205.381 92.155 C 204.806 92.158,202.922 92.271,201.196 92.406 M202.787 94.395 C 208.842 94.440,218.663 94.440,224.611 94.394 C 230.559 94.349,225.605 94.312,213.602 94.312 C 201.599 94.312,196.733 94.349,202.787 94.395 M128.883 101.811 C 128.864 102.314,129.061 102.987,129.320 103.306 C 129.578 103.625,129.687 103.689,129.561 103.448 C 129.435 103.207,129.239 102.534,129.125 101.953 C 128.919 100.903,128.918 100.902,128.883 101.811 M217.285 109.940 C 221.119 109.987,227.308 109.987,231.037 109.940 C 234.766 109.892,231.629 109.854,224.066 109.854 C 216.502 109.854,213.451 109.893,217.285 109.940 M70.496 116.813 C 70.013 117.949,70.760 133.966,71.332 134.732 L 71.961 135.575 77.827 135.725 C 83.363 135.866,83.729 135.911,84.347 136.530 C 84.990 137.174,85.245 138.771,84.778 139.238 C 84.655 139.361,68.926 139.529,49.826 139.611 L 15.097 139.761 13.844 140.431 C 8.340 143.373,9.259 151.210,15.339 153.184 C 16.507 153.564,17.559 154.062,17.676 154.291 C 17.793 154.521,18.249 155.448,18.690 156.353 C 19.521 158.056,21.381 160.239,22.001 160.239 C 24.054 160.239,24.368 162.598,24.790 181.166 C 24.968 188.976,25.253 198.662,25.423 202.691 C 25.594 206.719,25.865 215.598,26.026 222.422 C 26.187 229.245,26.445 237.855,26.599 241.555 C 26.754 245.254,26.886 251.159,26.893 254.677 C 26.907 261.763,27.452 276.613,27.765 278.468 C 28.030 280.035,28.956 280.582,30.858 280.297 C 32.659 280.027,32.887 279.387,32.879 274.619 C 32.873 270.680,33.314 248.753,33.800 228.849 C 33.968 221.943,34.231 208.759,34.384 199.552 C 34.536 190.344,34.803 178.102,34.976 172.347 L 35.291 161.883 36.106 161.212 C 37.367 160.173,38.547 160.081,40.297 160.886 C 42.156 161.742,42.144 161.698,42.147 167.265 C 42.148 169.731,42.286 175.112,42.454 179.223 C 42.622 183.333,42.888 192.145,43.046 198.804 C 43.662 224.819,44.824 262.992,45.021 263.707 C 45.185 264.299,46.399 264.874,47.473 264.869 C 50.435 264.854,50.520 264.519,50.539 252.830 C 50.548 247.533,50.676 238.759,50.823 233.333 C 50.971 227.907,51.228 215.934,51.394 206.726 C 51.790 184.804,52.323 162.941,52.479 162.156 C 52.556 161.768,53.087 161.315,53.880 160.960 C 55.945 160.036,57.494 158.288,58.424 155.830 L 59.245 153.662 90.021 153.662 L 120.797 153.662 121.067 154.335 C 121.431 155.240,121.448 154.571,121.089 153.483 C 120.775 152.530,119.903 144.393,119.635 139.910 C 119.508 137.785,119.423 137.371,119.299 138.266 L 119.133 139.462 104.652 139.540 C 89.447 139.621,88.732 139.563,90.343 138.382 C 90.787 138.056,91.626 137.141,92.209 136.348 C 93.225 134.964,93.341 134.898,95.101 134.699 C 99.416 134.210,101.046 132.088,101.046 126.959 C 101.046 122.028,100.040 120.424,96.133 119.133 C 94.536 118.605,94.306 118.430,94.170 117.638 L 94.015 116.741 82.304 116.663 C 75.863 116.620,70.549 116.687,70.496 116.813 M210.832 118.386 C 210.832 118.961,210.893 119.197,210.968 118.909 C 211.044 118.621,211.044 118.150,210.968 117.862 C 210.893 117.575,210.832 117.810,210.832 118.386 M211.219 122.422 C 211.319 122.915,211.541 125.000,211.711 127.055 C 212.123 132.032,213.028 139.173,213.435 140.658 C 213.850 142.174,214.464 150.234,214.447 153.961 C 214.438 156.024,214.485 156.392,214.617 155.306 L 214.798 153.812 272.188 153.812 L 329.578 153.812 330.584 155.755 C 331.704 157.917,333.483 160.238,334.026 160.242 C 337.402 160.272,338.022 163.138,338.101 179.073 C 338.121 183.102,338.264 189.290,338.418 192.825 C 338.572 196.360,338.834 204.768,339.001 211.510 C 339.168 218.251,339.441 226.928,339.607 230.792 C 339.774 234.656,339.984 244.611,340.074 252.915 C 340.284 272.309,340.543 278.327,341.213 279.348 C 342.184 280.831,345.084 280.705,345.828 279.147 C 346.314 278.131,346.925 261.522,346.687 255.795 C 346.542 252.300,346.830 236.399,347.220 226.308 C 347.306 224.088,347.447 216.555,347.534 209.567 C 347.674 198.211,347.822 191.586,348.467 167.770 L 348.648 161.101 349.804 160.371 C 351.255 159.455,351.345 159.459,353.480 160.542 C 354.449 161.033,355.458 161.437,355.722 161.440 C 357.013 161.452,357.020 161.501,357.274 172.389 C 357.694 190.381,358.417 215.588,358.589 218.236 C 358.774 221.078,359.472 249.660,359.487 255.007 C 359.513 264.315,359.678 264.873,362.401 264.873 C 365.514 264.873,365.594 264.499,365.615 249.776 C 365.625 243.199,365.762 233.513,365.919 228.251 C 366.076 222.990,366.341 210.613,366.507 200.747 C 366.836 181.177,367.358 162.168,367.588 161.392 C 367.668 161.122,368.121 160.741,368.596 160.544 C 370.217 159.872,371.814 157.696,372.467 155.266 C 372.807 154.004,373.291 153.675,374.825 153.666 C 378.543 153.644,381.691 148.454,380.373 144.523 C 379.010 140.457,377.287 139.540,370.703 139.370 C 366.490 139.261,365.595 139.154,364.574 138.634 C 362.875 137.768,361.298 137.813,359.342 138.782 L 357.698 139.598 349.776 139.679 C 324.675 139.938,265.498 139.544,261.584 139.093 C 253.870 138.203,247.795 138.637,243.085 140.414 C 241.997 140.825,240.299 141.288,239.312 141.444 C 238.326 141.600,236.442 142.041,235.127 142.423 C 228.573 144.329,226.179 144.365,222.739 142.610 C 217.453 139.914,215.502 136.857,214.506 129.712 C 213.963 125.817,213.888 125.595,212.807 124.664 C 212.330 124.252,211.736 123.378,211.488 122.720 C 211.160 121.851,211.087 121.769,211.219 122.422 M97.283 123.192 C 98.552 124.700,98.454 129.434,97.128 130.672 C 94.847 132.804,93.871 131.676,93.871 126.906 C 93.871 122.138,95.189 120.704,97.283 123.192 M118.455 130.643 C 118.455 131.218,118.517 131.454,118.592 131.166 C 118.667 130.878,118.667 130.407,118.592 130.120 C 118.517 129.832,118.455 130.067,118.455 130.643 M214.730 160.239 C 214.730 160.979,214.788 161.282,214.860 160.912 C 214.931 160.542,214.931 159.936,214.860 159.567 C 214.788 159.197,214.730 159.499,214.730 160.239 M215.627 169.208 C 215.627 169.948,215.685 170.250,215.757 169.880 C 215.828 169.510,215.828 168.905,215.757 168.535 C 215.685 168.165,215.627 168.468,215.627 169.208 M216.518 178.326 C 216.521 178.984,216.582 179.217,216.654 178.846 C 216.725 178.474,216.723 177.936,216.648 177.650 C 216.573 177.364,216.515 177.668,216.518 178.326 M124.135 181.166 C 124.135 181.741,124.197 181.977,124.272 181.689 C 124.347 181.401,124.347 180.930,124.272 180.643 C 124.197 180.355,124.135 180.590,124.135 181.166 M216.834 183.707 C 216.836 184.694,216.892 185.061,216.958 184.524 C 217.025 183.986,217.023 183.179,216.955 182.730 C 216.887 182.281,216.832 182.720,216.834 183.707 M139.163 193.333 C 140.872 193.489,142.334 194.300,142.007 194.911 C 141.662 195.555,140.508 200.371,140.508 201.166 C 140.508 201.559,140.867 202.021,141.444 202.371 L 142.379 202.940 141.219 203.321 C 140.582 203.530,137.975 203.789,135.426 203.896 C 132.877 204.003,138.393 204.037,147.683 203.971 C 167.415 203.833,166.023 203.960,165.832 202.304 C 165.135 196.252,164.928 194.959,164.522 194.104 L 164.057 193.124 151.012 193.174 C 143.837 193.202,138.505 193.274,139.163 193.333 M172.985 193.576 C 172.673 194.389,172.789 196.736,173.244 198.804 C 173.479 199.873,173.676 201.242,173.682 201.847 C 173.701 203.877,173.742 203.887,182.159 203.882 C 189.894 203.877,191.342 203.680,191.065 202.666 C 190.655 201.163,190.724 200.883,191.882 199.315 C 193.187 197.549,195.946 195.826,196.532 196.412 C 196.988 196.869,197.427 196.778,198.592 195.987 C 199.295 195.510,200.458 195.144,201.997 194.915 C 203.283 194.724,204.738 194.470,205.232 194.352 L 206.129 194.136 205.381 193.705 C 204.163 193.002,173.252 192.879,172.985 193.576 M163.827 194.805 C 163.827 195.202,163.745 195.223,163.378 194.918 C 163.132 194.713,162.930 194.495,162.930 194.433 C 162.930 194.371,163.132 194.320,163.378 194.320 C 163.625 194.320,163.827 194.538,163.827 194.805 M164.697 199.626 L 164.670 201.046 164.380 200.038 C 164.220 199.484,164.161 198.845,164.248 198.618 C 164.551 197.829,164.723 198.216,164.697 199.626 M164.873 202.989 C 164.805 203.099,164.310 203.124,163.774 203.046 C 162.853 202.910,162.837 202.888,163.490 202.646 C 163.870 202.505,164.261 202.089,164.357 201.720 C 164.522 201.091,164.546 201.103,164.765 201.920 C 164.892 202.398,164.941 202.879,164.873 202.989 M149.402 202.908 C 148.786 202.973,147.777 202.973,147.160 202.908 C 146.543 202.844,147.048 202.791,148.281 202.791 C 149.514 202.791,150.019 202.844,149.402 202.908 M159.716 202.913 C 158.524 202.969,156.573 202.969,155.381 202.913 C 154.189 202.856,155.164 202.809,157.549 202.809 C 159.933 202.809,160.908 202.856,159.716 202.913 M229.680 204.107 C 230.466 204.168,231.677 204.168,232.371 204.105 C 233.065 204.042,232.422 203.992,230.942 203.993 C 229.462 203.993,228.894 204.045,229.680 204.107 M237.445 209.118 C 237.448 209.776,237.509 210.010,237.581 209.638 C 237.652 209.266,237.649 208.728,237.575 208.442 C 237.500 208.156,237.441 208.460,237.445 209.118 M131.350 215.996 C 132.434 216.561,132.761 216.556,132.006 215.985 C 131.686 215.743,131.216 215.546,130.959 215.547 C 130.703 215.548,130.879 215.750,131.350 215.996 M133.558 216.653 C 133.928 216.725,134.533 216.725,134.903 216.653 C 135.273 216.582,134.970 216.524,134.230 216.524 C 133.490 216.524,133.188 216.582,133.558 216.653 M136.173 217.040 C 136.502 217.182,137.108 217.297,137.519 217.297 C 138.200 217.297,138.213 217.275,137.668 217.040 C 137.339 216.899,136.734 216.783,136.323 216.783 C 135.642 216.783,135.628 216.806,136.173 217.040 M140.444 217.560 C 141.312 217.621,142.658 217.620,143.433 217.559 C 144.209 217.497,143.498 217.448,141.854 217.448 C 140.209 217.449,139.575 217.499,140.444 217.560 M148.306 217.746 C 148.374 217.805,149.036 217.942,149.776 218.049 C 150.716 218.186,150.986 218.155,150.673 217.946 C 150.269 217.678,148.006 217.486,148.306 217.746 M197.907 224.252 C 196.865 225.165,196.865 225.166,197.824 224.529 C 198.353 224.177,198.865 223.760,198.962 223.603 C 199.251 223.137,199.011 223.284,197.907 224.252 M189.312 227.112 C 189.600 227.187,190.071 227.187,190.359 227.112 C 190.646 227.037,190.411 226.975,189.836 226.975 C 189.260 226.975,189.025 227.037,189.312 227.112 M181.575 256.502 C 181.575 258.229,181.625 258.935,181.685 258.072 C 181.746 257.209,181.746 255.796,181.685 254.933 C 181.625 254.070,181.575 254.776,181.575 256.502 M146.581 273.467 C 149.346 273.517,153.785 273.517,156.446 273.467 C 159.108 273.418,156.846 273.377,151.420 273.377 C 145.994 273.378,143.816 273.418,146.581 273.467 M206.215 273.465 C 207.249 273.524,208.863 273.523,209.802 273.464 C 210.741 273.405,209.895 273.357,207.922 273.358 C 205.949 273.358,205.181 273.407,206.215 273.465 M214.126 277.280 C 214.130 277.937,214.191 278.171,214.262 277.799 C 214.334 277.427,214.331 276.889,214.256 276.603 C 214.181 276.318,214.123 276.622,214.126 277.280 M150.598 280.939 C 151.790 280.996,153.741 280.996,154.933 280.939 C 156.125 280.883,155.149 280.836,152.765 280.836 C 150.381 280.836,149.406 280.883,150.598 280.939 M170.478 280.937 C 171.259 280.999,172.537 280.999,173.318 280.937 C 174.099 280.876,173.460 280.825,171.898 280.825 C 170.336 280.825,169.697 280.876,170.478 280.937 M203.962 284.155 C 203.965 284.813,204.026 285.047,204.098 284.675 C 204.169 284.303,204.167 283.765,204.092 283.479 C 204.017 283.193,203.958 283.498,203.962 284.155 M162.112 291.395 C 162.566 291.464,163.239 291.462,163.607 291.391 C 163.974 291.320,163.602 291.264,162.780 291.266 C 161.958 291.269,161.657 291.327,162.112 291.395 M209.346 291.395 C 209.801 291.464,210.473 291.462,210.841 291.391 C 211.209 291.320,210.837 291.264,210.015 291.266 C 209.193 291.269,208.892 291.327,209.346 291.395 " stroke="none" fill="#cd6f51" fill-rule="evenodd"></path><path id="path2" d="M0.000 149.477 L 0.000 298.954 200.000 298.954 L 400.000 298.954 400.000 149.477 L 400.000 0.000 200.000 0.000 L 0.000 0.000 0.000 149.477 M273.302 10.451 L 274.486 11.635 274.371 65.683 C 274.281 107.820,274.174 119.936,273.884 120.661 C 273.438 121.780,272.469 122.272,270.713 122.272 C 268.543 122.272,268.280 122.045,269.262 121.019 C 270.093 120.152,270.103 120.098,270.210 115.689 L 270.319 111.235 253.470 111.063 C 224.990 110.772,210.823 110.752,210.574 111.000 C 210.444 111.131,210.519 111.530,210.741 111.886 C 210.998 112.296,211.190 113.798,211.267 115.983 C 211.517 123.065,213.275 125.340,223.989 132.442 C 224.604 132.850,225.109 133.272,225.110 133.379 C 225.118 134.169,233.120 134.160,239.163 133.363 C 240.396 133.200,243.356 132.982,245.740 132.879 C 248.124 132.776,251.622 132.440,253.513 132.132 C 258.187 131.370,259.794 131.733,261.922 134.033 C 262.755 134.933,262.992 135.350,263.921 137.550 L 264.502 138.927 281.385 139.147 C 298.114 139.365,298.280 139.362,299.641 138.742 C 300.987 138.129,301.374 138.117,319.876 138.117 C 337.850 138.117,338.791 138.090,339.847 137.546 C 344.815 134.991,344.593 128.334,339.462 125.984 C 339.131 125.832,330.304 125.643,319.687 125.561 C 301.968 125.422,300.467 125.371,299.933 124.888 C 299.505 124.500,298.841 124.365,297.371 124.365 C 294.732 124.365,290.882 122.487,290.882 121.201 C 290.882 120.968,290.772 120.777,290.638 120.777 C 289.507 120.777,288.578 114.391,289.527 113.136 C 289.769 112.817,289.970 112.382,289.976 112.170 C 289.988 111.645,291.167 110.015,292.067 109.278 C 293.807 107.853,294.631 107.623,297.996 107.623 C 300.118 107.623,301.349 107.500,301.586 107.263 C 301.859 106.990,306.699 106.896,321.617 106.874 L 341.287 106.846 342.605 105.960 C 347.494 102.677,346.528 95.982,340.923 94.295 C 339.776 93.950,336.129 93.871,321.159 93.871 C 301.242 93.871,300.550 93.812,302.114 92.249 C 302.482 91.881,303.277 91.778,305.776 91.774 C 309.761 91.768,310.021 91.634,309.020 90.098 C 306.188 85.753,306.865 77.086,310.238 74.512 L 311.313 73.692 329.423 73.474 C 351.598 73.208,350.723 73.080,348.955 76.323 C 348.505 77.148,348.434 78.160,348.432 83.707 L 348.430 90.135 349.266 90.957 C 349.787 91.469,350.426 91.779,350.961 91.779 C 362.216 91.779,363.900 106.998,352.790 108.312 C 349.621 108.687,348.577 110.823,348.584 116.917 C 348.589 121.298,348.705 121.865,349.646 122.101 C 350.037 122.199,350.498 122.544,350.671 122.867 C 350.856 123.213,351.641 123.646,352.574 123.917 C 359.379 125.895,360.346 136.145,353.973 138.753 C 353.673 138.876,353.905 139.018,354.636 139.161 C 355.894 139.406,358.341 139.125,358.601 138.705 C 359.450 137.332,362.715 137.081,364.843 138.225 C 366.233 138.974,366.528 139.014,370.672 139.015 C 373.073 139.016,375.537 139.156,376.147 139.325 C 377.368 139.664,380.263 142.163,380.279 142.890 C 380.284 143.142,380.486 143.609,380.727 143.929 C 382.218 145.900,379.812 153.064,377.660 153.064 C 377.491 153.064,377.198 153.251,377.008 153.479 C 376.819 153.708,375.956 153.983,375.092 154.091 C 373.367 154.306,372.966 154.691,372.637 156.442 C 372.434 157.525,369.685 160.837,368.989 160.837 C 367.857 160.837,367.713 161.919,367.700 170.545 C 367.693 175.153,367.556 181.143,367.395 183.857 C 367.234 186.570,366.973 198.004,366.814 209.268 C 366.656 220.531,366.396 231.629,366.238 233.931 C 366.079 236.233,365.942 241.830,365.934 246.368 L 365.919 254.620 370.030 254.781 C 372.291 254.870,376.938 254.964,380.358 254.990 C 387.472 255.044,387.444 255.038,387.444 256.327 C 387.444 258.614,379.495 266.080,369.507 273.173 C 368.767 273.698,367.354 274.710,366.368 275.422 C 363.239 277.679,361.329 279.016,359.791 280.027 C 358.969 280.567,358.094 281.147,357.848 281.315 C 352.699 284.830,352.085 284.926,338.565 284.329 C 334.290 284.140,327.227 283.862,322.870 283.711 C 318.513 283.560,312.392 283.290,309.268 283.112 C 300.201 282.595,279.098 282.047,275.259 282.230 C 271.281 282.419,271.190 282.468,270.643 284.679 C 269.410 289.670,264.492 290.973,248.063 290.661 C 239.395 290.497,237.496 290.637,234.679 291.646 C 224.683 295.226,204.166 297.173,192.349 295.662 C 191.049 295.495,188.236 295.234,186.099 295.082 C 182.276 294.809,179.011 294.474,173.991 293.842 C 169.769 293.310,162.761 292.682,157.698 292.383 C 153.379 292.128,151.438 291.912,147.027 291.197 C 146.109 291.048,145.508 291.084,145.293 291.299 C 144.035 292.558,138.769 291.270,138.230 289.571 C 138.124 289.239,137.854 288.783,137.629 288.558 C 137.404 288.333,137.220 287.896,137.220 287.587 C 137.220 287.278,137.000 286.902,136.731 286.752 C 135.855 286.261,135.871 282.811,136.761 280.663 C 137.765 278.239,127.052 277.665,85.351 277.911 C 58.331 278.070,58.151 278.078,53.214 279.366 C 52.309 279.602,50.157 280.147,48.430 280.578 C 46.704 281.008,44.484 281.562,43.498 281.809 C 42.511 282.055,40.964 282.431,40.060 282.644 C 39.155 282.857,37.877 283.183,37.220 283.369 C 35.427 283.875,29.603 284.131,28.625 283.746 C 27.902 283.462,27.803 283.265,27.803 282.108 C 27.803 281.384,27.586 280.204,27.321 279.485 C 26.917 278.391,26.798 275.875,26.590 264.126 C 26.454 256.398,26.257 249.485,26.151 248.765 C 25.968 247.505,25.446 228.492,24.817 200.149 C 24.653 192.750,24.385 184.208,24.223 181.166 C 24.060 178.124,23.842 172.524,23.738 168.721 L 23.550 161.806 22.313 161.117 C 20.432 160.070,19.096 158.579,17.939 156.235 C 16.942 154.215,16.832 154.102,15.695 153.943 C 9.977 153.141,7.592 145.873,11.598 141.457 C 13.699 139.142,11.142 139.312,43.771 139.312 C 59.790 139.312,73.109 139.231,73.369 139.131 C 74.445 138.718,73.474 136.024,72.249 136.024 C 70.516 136.024,70.019 133.475,69.921 124.089 C 69.846 116.808,69.867 116.480,70.422 116.263 C 71.276 115.928,93.097 115.942,93.980 116.277 C 94.467 116.462,94.759 116.835,94.822 117.349 C 94.902 118.003,95.189 118.232,96.519 118.699 C 100.393 120.058,101.345 121.666,101.345 126.852 C 101.345 132.537,99.784 134.710,95.447 135.058 C 93.795 135.191,93.461 135.320,93.030 135.992 C 92.755 136.421,92.089 137.232,91.550 137.796 C 90.102 139.309,90.053 139.303,104.783 139.303 C 119.307 139.303,119.258 139.309,118.698 137.775 C 118.496 137.223,118.262 135.224,118.179 133.333 C 118.095 131.442,117.838 129.319,117.608 128.614 C 117.378 127.910,117.188 126.161,117.186 124.728 C 117.180 121.338,117.083 121.051,115.658 120.230 C 114.116 119.343,113.303 118.643,113.303 118.202 C 113.303 118.009,113.102 117.774,112.855 117.680 C 112.608 117.585,112.407 117.318,112.407 117.086 C 112.407 116.855,112.205 116.498,111.958 116.293 C 111.261 115.714,111.332 110.491,112.056 109.070 C 112.623 107.958,114.526 105.830,114.954 105.830 C 115.089 105.830,115.458 105.596,115.773 105.310 C 116.225 104.901,117.041 104.767,119.609 104.679 L 122.870 104.568 122.870 58.101 L 122.870 11.635 124.114 10.451 L 125.359 9.268 198.739 9.268 L 272.118 9.268 273.302 10.451 M130.119 59.715 L 130.194 102.990 133.184 103.071 L 136.173 103.153 137.818 101.616 C 139.479 100.063,150.368 94.446,155.157 92.672 C 156.823 92.055,157.065 91.552,156.193 90.517 C 155.697 89.927,155.456 89.274,155.456 88.523 C 155.456 87.475,154.282 85.800,153.547 85.800 C 152.659 85.800,147.384 80.810,147.384 79.969 C 147.384 79.872,146.898 78.757,146.304 77.490 C 145.710 76.223,145.101 74.918,144.951 74.589 C 144.802 74.260,144.359 73.453,143.968 72.795 C 135.830 59.115,137.636 43.542,148.132 36.898 C 150.158 35.615,152.230 34.549,153.318 34.228 C 154.477 33.887,155.159 32.959,155.353 31.458 C 155.454 30.681,155.704 29.843,155.909 29.596 C 156.114 29.350,156.364 28.879,156.464 28.550 C 157.297 25.805,165.193 22.315,166.347 24.181 C 166.437 24.327,166.958 24.530,167.504 24.633 C 168.707 24.858,171.821 27.540,172.081 28.574 C 172.180 28.972,172.374 29.297,172.511 29.297 C 172.648 29.297,172.870 29.856,173.005 30.538 C 173.282 31.937,173.483 32.084,175.785 32.574 C 179.258 33.314,179.636 33.309,180.369 32.519 L 181.045 31.788 199.267 31.590 C 237.832 31.169,237.070 31.130,237.070 33.524 C 237.070 35.766,239.523 35.575,210.677 35.577 C 185.269 35.578,184.916 35.586,185.800 36.144 C 186.293 36.455,187.074 37.123,187.536 37.629 L 188.375 38.548 212.229 38.631 C 238.630 38.723,237.070 38.594,237.070 40.687 C 237.070 43.013,238.449 42.880,212.432 43.049 L 189.412 43.199 189.227 44.096 C 189.126 44.589,188.875 45.304,188.670 45.685 C 188.363 46.257,188.380 46.503,188.768 47.095 C 189.026 47.489,189.238 48.055,189.238 48.353 C 189.238 48.652,189.446 49.193,189.702 49.558 C 190.368 50.509,190.388 54.548,189.732 55.816 C 189.460 56.341,189.238 56.845,189.238 56.936 C 189.238 57.026,199.646 57.100,212.366 57.100 C 238.347 57.100,237.070 56.990,237.070 59.234 C 237.070 61.471,239.269 61.286,212.732 61.286 C 186.753 61.286,187.471 61.251,186.719 62.525 C 185.623 64.379,184.175 64.275,210.977 64.279 C 238.409 64.284,236.921 64.165,236.921 66.368 C 236.921 68.572,238.448 68.451,210.595 68.456 C 181.983 68.461,184.806 68.100,184.431 71.801 C 184.289 73.206,184.034 74.720,183.865 75.165 C 183.068 77.261,182.403 77.130,193.826 77.130 C 205.400 77.130,205.381 77.126,205.381 79.286 C 205.381 81.352,205.603 81.315,193.064 81.315 L 181.840 81.315 180.669 82.586 C 180.025 83.285,178.595 84.654,177.492 85.629 L 175.486 87.401 175.486 89.824 C 175.486 92.190,175.507 92.260,176.366 92.768 C 177.730 93.573,179.499 93.584,179.612 92.788 C 179.889 90.846,178.132 90.972,208.221 90.738 L 235.426 90.525 236.248 91.174 C 237.128 91.868,237.339 93.110,236.761 94.190 C 236.458 94.755,235.842 94.768,209.705 94.768 C 192.074 94.768,182.960 94.870,182.960 95.067 C 182.960 95.232,183.160 95.366,183.405 95.366 C 184.635 95.366,195.114 101.496,195.879 102.663 C 196.100 102.999,263.606 103.011,263.942 102.674 C 264.030 102.587,264.107 83.182,264.114 59.553 L 264.126 16.592 197.084 16.517 L 130.043 16.441 130.119 59.715 M204.190 25.370 C 205.410 26.022,205.792 27.648,204.927 28.513 C 204.049 29.391,181.110 29.234,180.281 28.344 C 179.301 27.293,179.625 26.079,181.099 25.279 C 182.478 24.531,202.769 24.610,204.190 25.370 M160.837 26.627 C 159.512 27.365,157.907 29.104,157.667 30.062 C 157.565 30.467,157.363 30.872,157.217 30.962 C 156.216 31.580,156.980 32.796,158.221 32.563 C 162.601 31.739,164.063 31.580,167.414 31.561 L 171.151 31.540 171.068 30.798 C 170.664 27.211,164.383 24.650,160.837 26.627 M93.668 38.113 C 100.630 41.022,95.160 58.141,85.202 64.606 C 78.008 69.277,72.584 64.647,74.888 55.803 C 75.135 54.856,75.336 53.769,75.336 53.386 C 75.336 51.050,79.692 44.520,83.056 41.815 C 87.794 38.003,90.851 36.936,93.668 38.113 M66.218 54.185 C 66.480 54.555,67.428 55.857,68.325 57.078 C 70.398 59.901,70.248 62.182,67.990 62.182 C 67.259 62.182,66.979 61.497,67.564 61.136 C 68.420 60.607,67.465 57.315,66.012 55.788 C 65.335 55.077,64.877 54.073,65.075 53.737 C 65.312 53.335,65.733 53.500,66.218 54.185 M64.639 62.257 C 65.284 62.762,64.823 63.976,63.986 63.976 C 63.491 63.976,63.378 63.782,63.378 62.930 C 63.378 61.817,63.793 61.596,64.639 62.257 M311.918 75.310 C 308.495 77.404,307.550 83.797,310.040 88.018 C 311.232 90.037,311.122 90.023,325.262 89.924 L 337.967 89.836 338.178 83.707 C 338.294 80.336,338.428 76.973,338.477 76.233 L 338.565 74.888 325.710 74.812 C 313.492 74.741,312.809 74.765,311.918 75.310 M236.605 84.670 C 237.246 85.586,237.188 86.384,236.420 87.200 L 235.770 87.892 208.340 87.892 L 180.910 87.892 180.291 87.105 C 179.545 86.156,179.519 85.712,180.154 84.743 L 180.637 84.006 208.388 84.006 L 236.139 84.006 236.605 84.670 M44.693 86.096 C 44.797 86.423,44.799 86.824,44.699 86.987 C 44.428 87.425,43.348 86.657,43.348 86.027 C 43.348 85.293,44.456 85.350,44.693 86.096 M50.096 91.060 C 51.033 94.283,49.251 98.378,46.200 100.011 C 45.377 100.452,45.137 100.747,45.239 101.196 C 45.918 104.212,46.687 107.500,47.648 111.510 C 47.904 112.578,48.262 114.126,48.444 114.948 C 48.755 116.356,49.075 117.708,49.932 121.226 C 50.132 122.048,50.467 123.460,50.676 124.365 C 50.886 125.269,51.291 127.018,51.576 128.251 C 51.862 129.484,52.265 131.233,52.471 132.138 C 52.678 133.042,52.944 134.152,53.063 134.604 L 53.279 135.426 50.705 135.426 C 49.290 135.426,48.132 135.307,48.132 135.162 C 48.132 134.844,49.175 134.539,50.281 134.533 C 51.337 134.528,51.512 134.179,51.141 132.816 C 50.972 132.196,50.555 130.478,50.215 128.999 C 49.875 127.519,49.415 125.568,49.193 124.664 C 48.348 121.235,47.995 119.726,46.761 114.275 C 46.320 112.329,45.758 109.931,45.027 106.876 C 44.791 105.889,44.407 104.275,44.175 103.288 L 43.752 101.495 42.055 101.405 C 40.580 101.327,39.347 100.448,40.713 100.448 C 44.413 100.448,47.484 93.047,45.379 89.203 C 44.733 88.023,45.603 86.929,46.975 87.197 C 47.408 87.282,47.855 87.201,47.968 87.018 C 48.240 86.579,49.476 88.927,50.096 91.060 M41.882 90.209 C 43.171 91.815,43.342 92.939,42.547 94.605 C 41.156 97.523,36.890 95.472,37.507 92.182 C 37.903 90.075,40.745 88.794,41.882 90.209 M295.678 109.780 C 289.022 112.832,291.055 121.897,298.435 122.076 C 299.460 122.101,307.900 122.088,317.190 122.047 L 334.081 121.973 334.081 116.816 C 334.081 112.424,334.160 111.514,334.616 110.679 C 334.911 110.140,335.071 109.568,334.972 109.408 C 334.561 108.743,297.167 109.097,295.678 109.780 M94.768 126.707 C 94.768 131.378,94.738 131.286,96.119 130.862 C 98.639 130.088,98.072 122.571,95.494 122.571 L 94.768 122.571 94.768 126.707 M59.210 155.271 C 58.872 155.970,58.595 156.741,58.595 156.985 C 58.595 157.558,55.679 160.837,55.170 160.837 C 54.956 160.837,54.614 161.039,54.410 161.286 C 54.205 161.532,53.785 161.734,53.476 161.734 C 52.974 161.734,52.913 161.994,52.895 164.200 C 52.885 165.557,52.750 171.308,52.596 176.981 C 51.910 202.332,51.754 209.674,51.728 217.937 C 51.713 222.788,51.579 228.842,51.431 231.390 C 51.074 237.552,50.687 257.213,50.912 257.799 C 51.057 258.178,51.767 257.920,54.816 256.380 C 59.178 254.177,62.106 253.079,65.770 252.274 C 66.647 252.081,82.936 252.051,112.631 252.187 L 158.146 252.395 158.146 251.070 C 158.146 250.342,158.006 249.605,157.834 249.434 C 157.663 249.262,157.398 248.192,157.246 247.057 C 156.851 244.108,156.367 241.360,155.907 239.462 C 155.322 237.052,154.896 234.815,154.544 232.316 C 154.372 231.098,154.119 229.888,153.981 229.625 C 153.844 229.363,153.636 228.408,153.521 227.504 C 153.405 226.599,153.120 225.283,152.888 224.578 C 152.656 223.874,152.466 222.757,152.466 222.097 C 152.466 221.147,151.834 219.219,151.487 219.112 C 151.450 219.101,149.335 218.969,146.786 218.819 C 137.856 218.294,132.546 217.556,130.544 216.563 C 130.078 216.332,129.562 216.143,129.397 216.143 C 127.135 216.143,124.753 209.350,126.298 207.307 C 126.540 206.988,126.742 206.540,126.747 206.312 C 126.759 205.798,127.971 204.654,129.239 203.960 C 129.995 203.547,131.193 203.407,134.978 203.288 L 139.761 203.139 139.659 201.989 C 139.604 201.356,139.718 199.944,139.914 198.850 C 140.111 197.756,140.373 196.300,140.498 195.614 C 140.781 194.055,140.710 194.031,135.931 194.025 C 132.363 194.021,129.881 193.534,128.825 192.631 C 128.566 192.409,128.268 192.227,128.163 192.227 C 127.920 192.227,126.126 190.398,125.640 189.654 C 124.323 187.639,123.988 186.578,123.761 183.707 C 123.631 182.063,123.383 180.112,123.210 179.372 C 123.037 178.632,122.890 176.841,122.883 175.391 C 122.876 173.942,122.718 172.472,122.532 172.125 C 122.346 171.778,122.100 169.792,121.984 167.712 C 121.868 165.632,121.662 163.749,121.525 163.528 C 121.388 163.306,121.180 161.401,121.063 159.293 C 120.913 156.598,120.709 155.247,120.377 154.740 L 119.904 154.018 89.865 154.009 L 59.825 154.000 59.210 155.271 M227.130 154.189 C 217.944 154.249,215.239 154.351,215.215 154.637 C 215.103 155.929,215.334 159.677,215.584 160.641 C 215.748 161.273,215.999 163.695,216.140 166.022 C 216.282 168.350,216.534 170.927,216.701 171.749 C 216.868 172.571,217.013 174.614,217.023 176.288 C 217.032 177.963,217.171 179.677,217.331 180.097 C 217.939 181.696,218.042 184.631,217.527 185.664 C 217.259 186.200,217.040 186.945,217.040 187.319 C 217.040 187.693,216.839 188.201,216.592 188.448 C 216.345 188.694,216.143 189.035,216.143 189.206 C 216.143 189.376,215.725 189.993,215.213 190.576 C 214.305 191.610,214.352 192.526,215.313 192.526 C 215.887 192.526,221.614 195.235,222.717 196.028 C 223.956 196.918,226.607 199.729,226.607 200.152 C 226.607 200.370,226.758 200.598,226.943 200.660 C 227.127 200.722,227.365 201.305,227.470 201.956 L 227.661 203.139 230.946 203.297 C 234.885 203.486,235.996 204.005,237.459 206.342 C 238.137 207.426,238.180 211.410,237.519 211.958 C 237.272 212.163,237.065 212.482,237.058 212.667 C 237.040 213.129,234.250 215.247,233.660 215.247 C 233.398 215.247,233.184 215.365,233.184 215.510 C 233.184 215.860,230.720 216.726,228.849 217.035 C 228.027 217.171,226.976 217.429,226.513 217.609 C 226.050 217.790,225.275 217.937,224.790 217.937 C 224.026 217.937,223.825 218.126,223.283 219.357 C 222.939 220.138,222.470 221.158,222.240 221.624 C 222.011 222.089,221.824 222.674,221.824 222.924 C 221.824 223.173,221.637 223.801,221.409 224.320 C 221.181 224.838,220.695 226.136,220.329 227.205 C 219.963 228.274,219.476 229.572,219.248 230.090 C 219.021 230.608,218.834 231.217,218.834 231.444 C 218.834 231.670,218.651 232.120,218.428 232.445 C 218.205 232.769,217.930 233.539,217.817 234.155 C 217.704 234.772,217.483 235.277,217.326 235.277 C 217.169 235.277,217.040 235.559,217.040 235.904 C 217.040 236.249,216.854 236.955,216.626 237.474 C 216.398 237.992,215.912 239.290,215.546 240.359 C 215.179 241.428,214.693 242.726,214.465 243.244 C 214.237 243.762,214.051 244.386,214.051 244.630 C 214.051 244.874,213.850 245.459,213.604 245.930 C 213.359 246.401,213.157 246.996,213.156 247.252 C 213.155 247.509,212.956 247.979,212.715 248.299 C 212.474 248.618,212.272 249.156,212.267 249.494 C 212.261 249.833,212.060 250.371,211.818 250.690 C 211.577 251.009,211.375 251.628,211.370 252.066 C 211.357 253.163,211.470 253.168,241.256 253.349 C 254.985 253.433,273.617 253.628,282.661 253.783 C 291.704 253.938,308.184 254.109,319.283 254.162 L 339.462 254.260 339.556 250.972 C 339.608 249.163,339.504 245.531,339.326 242.900 C 339.147 240.269,338.869 231.142,338.708 222.617 C 338.547 214.092,338.342 207.000,338.254 206.856 C 338.165 206.713,337.969 199.764,337.819 191.414 C 337.453 171.167,336.926 161.734,336.159 161.734 C 334.183 161.734,330.045 157.671,330.045 155.731 C 330.045 155.466,329.762 154.993,329.416 154.680 C 328.792 154.116,276.450 153.864,227.130 154.189 M350.565 160.389 C 350.470 160.635,350.209 160.837,349.985 160.837 C 349.029 160.837,348.924 162.203,348.749 176.831 C 348.653 184.888,348.440 194.238,348.274 197.608 C 348.109 200.979,347.823 212.616,347.638 223.468 C 347.453 234.320,347.242 245.602,347.169 248.540 C 347.096 251.478,347.148 253.994,347.285 254.130 C 347.700 254.545,358.321 254.853,358.565 254.457 C 358.939 253.854,358.765 234.779,358.300 225.411 C 358.052 220.396,357.711 210.172,357.543 202.691 C 356.527 157.472,356.768 161.749,355.241 161.739 C 354.543 161.734,352.282 160.666,351.999 160.208 C 351.732 159.777,350.752 159.900,350.565 160.389 M36.594 161.460 L 35.670 162.033 35.465 174.664 C 35.352 181.611,35.138 188.909,34.989 190.882 C 34.839 192.855,34.693 200.254,34.664 207.324 C 34.635 214.395,34.494 223.004,34.350 226.457 C 34.046 233.744,33.518 270.825,33.711 271.369 C 33.787 271.583,35.042 270.650,36.727 269.126 C 38.315 267.691,40.210 266.046,40.938 265.471 C 41.666 264.895,42.801 263.937,43.460 263.341 L 44.658 262.258 44.270 258.110 C 44.057 255.828,43.763 247.302,43.616 239.163 C 43.470 231.024,43.223 222.481,43.068 220.179 C 42.913 217.877,42.775 211.286,42.762 205.531 C 42.748 199.679,42.545 192.300,42.300 188.789 C 42.059 185.336,41.861 178.257,41.858 173.057 C 41.853 162.760,41.770 161.734,40.941 161.734 C 40.644 161.734,40.200 161.532,39.953 161.286 C 39.345 160.678,37.720 160.762,36.594 161.460 M201.817 222.197 C 201.804 222.485,201.613 222.720,201.392 222.720 C 201.170 222.720,200.740 222.996,200.436 223.332 C 197.749 226.301,194.152 227.534,187.595 227.734 C 183.407 227.862,182.449 227.974,182.148 228.369 C 181.876 228.727,181.780 231.744,181.773 240.262 L 181.764 251.676 182.552 252.295 C 183.277 252.866,183.734 252.915,188.324 252.915 C 194.009 252.915,194.270 252.827,194.640 250.797 C 195.062 248.483,195.846 245.600,196.134 245.306 C 196.287 245.150,196.413 244.661,196.413 244.220 C 196.413 243.778,196.622 242.695,196.878 241.813 C 197.899 238.292,198.231 237.077,199.115 233.632 C 199.622 231.659,200.137 229.439,200.259 228.700 C 200.382 227.960,200.643 227.060,200.839 226.701 C 201.035 226.342,201.196 225.690,201.196 225.252 C 201.196 224.814,201.411 224.003,201.673 223.450 C 201.935 222.897,202.080 222.271,201.995 222.059 C 201.898 221.816,201.832 221.866,201.817 222.197 " stroke="none" fill="#f4f4f4" fill-rule="evenodd"></path><path id="path3" d="M341.108 123.735 C 340.071 124.023,340.013 124.843,340.973 125.638 C 345.670 129.528,345.496 133.960,340.480 138.244 C 339.450 139.123,340.202 139.267,345.956 139.291 C 353.161 139.322,356.253 137.758,357.406 133.499 C 358.471 129.565,355.289 124.365,351.816 124.365 C 351.414 124.365,350.825 124.167,350.506 123.926 C 349.886 123.457,342.636 123.310,341.108 123.735 M212.706 192.136 C 212.051 192.902,206.986 194.286,202.638 194.887 C 198.366 195.478,194.791 197.623,192.504 200.968 C 191.081 203.048,191.068 203.216,192.302 203.430 C 194.056 203.735,227.494 203.757,227.190 203.453 C 227.034 203.297,226.905 202.893,226.903 202.556 C 226.899 201.657,225.335 199.090,224.162 198.057 C 222.995 197.028,220.410 195.217,220.109 195.217 C 219.998 195.217,218.892 194.762,217.652 194.206 C 216.411 193.650,215.022 193.045,214.565 192.863 C 214.108 192.680,213.637 192.285,213.519 191.984 C 213.318 191.474,213.262 191.485,212.706 192.136 M221.226 217.649 C 220.157 217.769,218.045 217.883,216.533 217.902 C 212.406 217.955,207.298 218.711,205.076 219.598 C 204.011 220.024,202.816 220.501,202.422 220.659 C 201.774 220.918,201.753 220.981,202.203 221.310 C 202.787 221.737,202.641 222.744,201.378 226.985 C 200.949 228.426,200.596 229.906,200.593 230.274 C 200.591 230.641,200.250 232.018,199.835 233.333 C 199.421 234.649,198.897 236.599,198.671 237.668 C 198.445 238.737,198.034 240.351,197.758 241.256 C 197.481 242.160,197.085 243.707,196.877 244.694 C 196.449 246.728,195.301 250.710,193.828 255.273 C 193.276 256.982,192.825 258.695,192.825 259.081 C 192.825 259.468,192.422 261.044,191.928 262.583 C 191.435 264.123,191.031 265.595,191.031 265.854 C 191.031 266.113,190.575 267.200,190.017 268.271 C 189.459 269.341,188.763 270.844,188.470 271.610 C 188.178 272.376,187.701 273.090,187.410 273.198 C 187.120 273.305,190.834 273.393,195.665 273.393 C 200.496 273.393,204.197 273.300,203.889 273.186 C 203.358 272.990,203.382 272.830,204.326 270.196 C 204.874 268.666,205.557 266.741,205.844 265.919 C 206.130 265.097,206.736 263.483,207.191 262.332 C 207.645 261.181,208.215 259.634,208.456 258.894 C 208.698 258.154,209.179 256.741,209.525 255.755 C 209.870 254.768,210.845 251.943,211.690 249.477 C 213.502 244.186,214.523 241.288,216.009 237.220 C 216.609 235.575,217.280 233.692,217.499 233.034 C 217.719 232.377,218.185 231.099,218.535 230.194 C 218.885 229.290,219.352 228.012,219.571 227.354 C 219.790 226.697,220.464 224.813,221.069 223.169 C 221.674 221.525,222.307 219.709,222.476 219.133 C 222.644 218.558,222.920 217.919,223.087 217.713 C 223.255 217.507,223.341 217.360,223.280 217.385 C 223.219 217.410,222.294 217.529,221.226 217.649 M152.821 220.432 C 152.957 221.444,153.472 224.040,153.964 226.200 C 154.455 228.360,154.858 230.437,154.858 230.815 C 154.858 231.192,155.049 232.317,155.283 233.314 C 156.321 237.739,158.195 247.670,158.502 250.374 C 158.651 251.689,159.102 254.380,159.503 256.353 C 159.904 258.326,160.364 260.815,160.524 261.883 C 160.685 262.952,161.155 265.239,161.569 266.966 C 162.393 270.403,162.560 273.118,161.960 273.318 C 161.755 273.386,162.461 273.381,163.529 273.307 C 166.187 273.123,166.218 273.081,166.218 269.673 C 166.218 265.642,166.937 263.588,169.186 261.197 L 170.254 260.061 170.336 243.897 C 170.427 226.013,170.569 227.172,168.224 226.647 C 164.059 225.715,162.517 224.950,157.745 221.449 C 156.456 220.503,155.043 219.646,154.606 219.545 C 154.169 219.444,153.533 219.188,153.192 218.976 C 152.582 218.597,152.577 218.619,152.821 220.432 " stroke="none" fill="#19becf" fill-rule="evenodd"></path><path id="path4" d="M124.114 10.451 L 122.870 11.635 122.870 58.101 L 122.870 104.568 119.609 104.679 C 117.041 104.767,116.225 104.901,115.773 105.310 C 115.458 105.596,115.089 105.830,114.954 105.830 C 114.526 105.830,112.623 107.958,112.056 109.070 C 111.332 110.491,111.261 115.714,111.958 116.293 C 112.205 116.498,112.407 116.855,112.407 117.086 C 112.407 117.318,112.608 117.585,112.855 117.680 C 113.102 117.774,113.303 118.009,113.303 118.202 C 113.303 118.643,114.116 119.343,115.658 120.230 C 117.083 121.051,117.180 121.338,117.186 124.728 C 117.188 126.161,117.378 127.910,117.608 128.614 C 117.838 129.319,118.095 131.442,118.179 133.333 C 118.262 135.224,118.496 137.223,118.698 137.775 C 119.258 139.309,119.307 139.303,104.783 139.303 C 90.053 139.303,90.102 139.309,91.550 137.796 C 92.089 137.232,92.755 136.421,93.030 135.992 C 93.461 135.320,93.795 135.191,95.447 135.058 C 99.784 134.710,101.345 132.537,101.345 126.852 C 101.345 121.666,100.393 120.058,96.519 118.699 C 95.189 118.232,94.902 118.003,94.822 117.349 C 94.759 116.835,94.467 116.462,93.980 116.277 C 93.097 115.942,71.276 115.928,70.422 116.263 C 69.867 116.480,69.846 116.808,69.921 124.089 C 70.019 133.475,70.516 136.024,72.249 136.024 C 73.474 136.024,74.445 138.718,73.369 139.131 C 73.109 139.231,59.790 139.312,43.771 139.312 C 11.142 139.312,13.699 139.142,11.598 141.457 C 7.592 145.873,9.977 153.141,15.695 153.943 C 16.832 154.102,16.942 154.215,17.939 156.235 C 19.096 158.579,20.432 160.070,22.313 161.117 L 23.550 161.806 23.738 168.721 C 23.842 172.524,24.060 178.124,24.223 181.166 C 24.385 184.208,24.653 192.750,24.817 200.149 C 25.446 228.492,25.968 247.505,26.151 248.765 C 26.257 249.485,26.454 256.398,26.590 264.126 C 26.798 275.875,26.917 278.391,27.321 279.485 C 27.586 280.204,27.803 281.384,27.803 282.108 C 27.803 283.265,27.902 283.462,28.625 283.746 C 29.603 284.131,35.427 283.875,37.220 283.369 C 37.877 283.183,39.155 282.857,40.060 282.644 C 40.964 282.431,42.511 282.055,43.498 281.809 C 44.484 281.562,46.704 281.008,48.430 280.578 C 50.157 280.147,52.309 279.602,53.214 279.366 C 58.151 278.078,58.331 278.070,85.351 277.911 C 127.052 277.665,137.765 278.239,136.761 280.663 C 135.871 282.811,135.855 286.261,136.731 286.752 C 137.000 286.902,137.220 287.278,137.220 287.587 C 137.220 287.896,137.404 288.333,137.629 288.558 C 137.854 288.783,138.124 289.239,138.230 289.571 C 138.769 291.270,144.035 292.558,145.293 291.299 C 145.508 291.084,146.109 291.048,147.027 291.197 C 151.438 291.912,153.379 292.128,157.698 292.383 C 162.761 292.682,169.769 293.310,173.991 293.842 C 179.011 294.474,182.276 294.809,186.099 295.082 C 188.236 295.234,191.049 295.495,192.349 295.662 C 204.166 297.173,224.683 295.226,234.679 291.646 C 237.496 290.637,239.395 290.497,248.063 290.661 C 264.492 290.973,269.410 289.670,270.643 284.679 C 271.190 282.468,271.281 282.419,275.259 282.230 C 279.098 282.047,300.201 282.595,309.268 283.112 C 312.392 283.290,318.513 283.560,322.870 283.711 C 327.227 283.862,334.290 284.140,338.565 284.329 C 352.085 284.926,352.699 284.830,357.848 281.315 C 358.094 281.147,358.969 280.567,359.791 280.027 C 361.329 279.016,363.239 277.679,366.368 275.422 C 367.354 274.710,368.767 273.698,369.507 273.173 C 379.495 266.080,387.444 258.614,387.444 256.327 C 387.444 255.038,387.472 255.044,380.358 254.990 C 376.938 254.964,372.291 254.870,370.030 254.781 L 365.919 254.620 365.934 246.368 C 365.942 241.830,366.079 236.233,366.238 233.931 C 366.396 231.629,366.656 220.531,366.814 209.268 C 366.973 198.004,367.234 186.570,367.395 183.857 C 367.556 181.143,367.693 175.153,367.700 170.545 C 367.713 161.919,367.857 160.837,368.989 160.837 C 369.685 160.837,372.434 157.525,372.637 156.442 C 372.966 154.691,373.367 154.306,375.092 154.091 C 375.956 153.983,376.819 153.708,377.008 153.479 C 377.198 153.251,377.491 153.064,377.660 153.064 C 379.812 153.064,382.218 145.900,380.727 143.929 C 380.486 143.609,380.284 143.142,380.279 142.890 C 380.263 142.163,377.368 139.664,376.147 139.325 C 375.537 139.156,373.073 139.016,370.672 139.015 C 366.528 139.014,366.233 138.974,364.843 138.225 C 362.715 137.081,359.450 137.332,358.601 138.705 C 358.341 139.125,355.894 139.406,354.636 139.161 C 353.905 139.018,353.673 138.876,353.973 138.753 C 360.346 136.145,359.379 125.895,352.574 123.917 C 351.641 123.646,350.856 123.213,350.671 122.867 C 350.498 122.544,350.037 122.199,349.646 122.101 C 348.705 121.865,348.589 121.298,348.584 116.917 C 348.577 110.823,349.621 108.687,352.790 108.312 C 358.159 107.677,361.304 103.154,360.156 97.718 C 359.549 94.848,354.797 91.779,350.961 91.779 C 350.426 91.779,349.787 91.469,349.266 90.957 L 348.430 90.135 348.432 83.707 C 348.434 78.160,348.505 77.148,348.955 76.323 C 350.723 73.080,351.598 73.208,329.423 73.474 L 311.313 73.692 310.238 74.512 C 306.865 77.086,306.188 85.753,309.020 90.098 C 310.021 91.634,309.761 91.768,305.776 91.774 C 303.277 91.778,302.482 91.881,302.114 92.249 C 300.550 93.812,301.242 93.871,321.159 93.871 C 336.129 93.871,339.776 93.950,340.923 94.295 C 346.528 95.982,347.494 102.677,342.605 105.960 L 341.287 106.846 321.617 106.874 C 306.699 106.896,301.859 106.990,301.586 107.263 C 301.349 107.500,300.118 107.623,297.996 107.623 C 294.631 107.623,293.807 107.853,292.067 109.278 C 291.167 110.015,289.988 111.645,289.976 112.170 C 289.970 112.382,289.769 112.817,289.527 113.136 C 288.578 114.391,289.507 120.777,290.638 120.777 C 290.772 120.777,290.882 120.968,290.882 121.201 C 290.882 122.487,294.732 124.365,297.371 124.365 C 298.841 124.365,299.505 124.500,299.933 124.888 C 300.467 125.371,301.968 125.422,319.687 125.561 C 330.304 125.643,339.131 125.832,339.462 125.984 C 344.593 128.334,344.815 134.991,339.847 137.546 C 338.791 138.090,337.850 138.117,319.876 138.117 C 301.374 138.117,300.987 138.129,299.641 138.742 C 298.280 139.362,298.114 139.365,281.385 139.147 L 264.502 138.927 263.921 137.550 C 262.992 135.350,262.755 134.933,261.922 134.033 C 259.794 131.733,258.187 131.370,253.513 132.132 C 251.622 132.440,248.124 132.776,245.740 132.879 C 243.356 132.982,240.396 133.200,239.163 133.363 C 233.120 134.160,225.118 134.169,225.110 133.379 C 225.109 133.272,224.604 132.850,223.989 132.442 C 213.275 125.340,211.517 123.065,211.267 115.983 C 211.190 113.798,210.998 112.296,210.741 111.886 C 210.519 111.530,210.444 111.131,210.574 111.000 C 210.823 110.752,224.990 110.772,253.470 111.063 L 270.319 111.235 270.210 115.689 C 270.103 120.098,270.093 120.152,269.262 121.019 C 268.280 122.045,268.543 122.272,270.713 122.272 C 272.469 122.272,273.438 121.780,273.884 120.661 C 274.174 119.936,274.281 107.820,274.371 65.683 L 274.486 11.635 273.302 10.451 L 272.118 9.268 198.739 9.268 L 125.359 9.268 124.114 10.451 M272.109 10.185 C 274.159 11.139,273.982 6.577,274.069 60.633 C 274.112 87.322,274.033 109.364,273.892 109.615 C 273.665 110.021,270.089 110.068,241.900 110.030 L 210.164 109.988 210.164 111.182 C 210.164 111.840,210.296 113.023,210.457 113.812 C 210.617 114.601,210.870 116.870,211.018 118.853 C 211.300 122.631,211.762 124.078,212.872 124.673 C 213.703 125.118,213.987 125.992,214.505 129.704 C 215.502 136.857,217.451 139.913,222.739 142.610 C 226.179 144.365,228.573 144.329,235.127 142.423 C 236.442 142.041,238.326 141.600,239.312 141.444 C 240.299 141.288,241.997 140.825,243.085 140.414 C 247.795 138.637,253.870 138.203,261.584 139.093 C 265.498 139.544,324.675 139.938,349.776 139.679 L 357.698 139.598 359.342 138.782 C 361.298 137.813,362.875 137.768,364.574 138.634 C 365.595 139.154,366.490 139.261,370.703 139.370 C 377.287 139.540,379.010 140.457,380.373 144.523 C 381.691 148.454,378.543 153.644,374.825 153.666 C 373.291 153.675,372.807 154.004,372.467 155.266 C 371.814 157.696,370.217 159.872,368.596 160.544 C 368.121 160.741,367.668 161.122,367.588 161.392 C 367.358 162.168,366.836 181.177,366.507 200.747 C 366.341 210.613,366.076 222.990,365.919 228.251 C 365.762 233.513,365.625 243.199,365.615 249.776 C 365.594 264.499,365.514 264.873,362.401 264.873 C 359.678 264.873,359.513 264.315,359.487 255.007 C 359.472 249.660,358.774 221.078,358.589 218.236 C 358.417 215.588,357.694 190.381,357.274 172.389 C 357.020 161.501,357.013 161.452,355.722 161.440 C 355.458 161.437,354.449 161.033,353.480 160.542 C 351.345 159.459,351.255 159.455,349.804 160.371 L 348.648 161.101 348.467 167.770 C 347.822 191.586,347.674 198.211,347.534 209.567 C 347.447 216.555,347.306 224.088,347.220 226.308 C 346.830 236.399,346.542 252.300,346.687 255.795 C 346.925 261.522,346.314 278.131,345.828 279.147 C 345.084 280.705,342.184 280.831,341.213 279.348 C 340.543 278.327,340.284 272.309,340.074 252.915 C 339.984 244.611,339.774 234.656,339.607 230.792 C 339.441 226.928,339.168 218.251,339.001 211.510 C 338.834 204.768,338.572 196.360,338.418 192.825 C 338.264 189.290,338.121 183.102,338.101 179.073 C 338.022 163.138,337.402 160.272,334.026 160.242 C 333.483 160.238,331.704 157.917,330.584 155.755 L 329.578 153.812 272.188 153.812 L 214.798 153.812 214.706 155.423 C 214.656 156.309,214.749 158.528,214.913 160.355 C 215.499 166.868,215.868 170.610,216.325 174.664 C 217.445 184.598,217.042 187.750,214.283 190.638 C 213.242 191.728,213.323 192.367,214.566 192.863 C 215.022 193.045,216.411 193.650,217.652 194.206 C 218.892 194.762,219.998 195.217,220.109 195.217 C 220.410 195.217,222.995 197.028,224.162 198.057 C 225.335 199.090,226.899 201.657,226.903 202.556 C 226.908 203.667,227.488 203.886,230.413 203.886 C 234.459 203.886,236.041 204.652,237.109 207.125 C 239.122 211.789,233.993 216.172,225.663 216.907 C 223.463 217.101,222.967 217.447,222.474 219.133 C 222.306 219.709,221.674 221.525,221.069 223.169 C 220.464 224.813,219.790 226.697,219.571 227.354 C 219.352 228.012,218.885 229.290,218.535 230.194 C 218.185 231.099,217.719 232.377,217.499 233.034 C 217.280 233.692,216.609 235.575,216.009 237.220 C 214.523 241.288,213.502 244.186,211.690 249.477 C 210.845 251.943,209.870 254.768,209.525 255.755 C 209.179 256.741,208.698 258.154,208.456 258.894 C 208.215 259.634,207.645 261.181,207.191 262.332 C 206.736 263.483,206.130 265.097,205.844 265.919 C 205.557 266.741,204.880 268.651,204.338 270.162 C 203.144 273.492,202.899 273.244,207.386 273.244 C 212.966 273.244,214.701 274.469,214.223 278.072 C 214.059 279.306,214.151 279.675,214.940 280.957 C 216.086 282.820,216.241 285.647,215.247 286.547 C 214.918 286.845,214.649 287.248,214.649 287.444 C 214.649 292.479,206.517 292.517,205.268 287.489 C 205.151 287.020,204.767 286.246,204.414 285.769 C 203.831 284.981,203.800 284.737,204.071 283.100 C 204.442 280.856,204.698 281.016,200.747 281.016 C 197.290 281.016,196.786 281.134,197.346 281.808 C 197.988 282.581,197.837 286.032,197.140 286.520 C 196.800 286.758,196.338 287.511,196.113 288.194 C 194.683 292.526,187.925 292.314,187.044 287.909 C 186.937 287.374,186.499 286.520,186.071 286.011 C 185.449 285.273,185.328 284.886,185.471 284.097 C 185.570 283.554,185.735 282.638,185.839 282.063 L 186.027 281.016 177.137 281.016 C 168.787 281.016,168.260 281.048,168.463 281.540 C 168.766 282.275,169.192 284.063,169.201 284.638 C 169.205 284.903,168.804 285.627,168.311 286.248 C 167.818 286.869,167.414 287.601,167.414 287.875 C 167.414 288.634,166.024 290.369,164.945 290.957 C 162.619 292.224,159.437 290.929,158.449 288.313 C 158.201 287.654,157.683 286.719,157.300 286.236 C 156.586 285.337,156.557 284.663,157.115 281.988 L 157.317 281.016 152.650 281.016 C 150.083 281.016,147.982 281.129,147.982 281.266 C 147.982 281.403,148.135 282.277,148.322 283.208 C 148.647 284.823,148.626 284.954,147.874 286.039 C 147.440 286.665,147.085 287.426,147.085 287.731 C 147.085 288.529,145.752 290.160,144.650 290.709 C 142.108 291.978,139.333 290.786,138.087 287.891 C 137.744 287.093,137.274 286.368,137.043 286.279 C 136.029 285.890,136.931 280.703,138.143 279.954 C 138.293 279.861,138.334 279.084,138.234 278.228 C 137.699 273.678,138.420 273.410,151.420 273.323 C 157.175 273.284,161.984 273.250,162.108 273.248 C 162.572 273.239,162.294 269.990,161.569 266.966 C 161.155 265.239,160.685 262.952,160.524 261.883 C 160.364 260.815,159.904 258.326,159.503 256.353 C 159.102 254.380,158.651 251.689,158.502 250.374 C 158.195 247.670,156.321 237.739,155.283 233.314 C 155.049 232.317,154.858 231.192,154.858 230.815 C 154.858 230.437,154.454 228.360,153.960 226.199 C 153.466 224.038,152.961 221.472,152.839 220.497 L 152.616 218.723 151.121 218.311 C 150.254 218.071,146.971 217.795,143.300 217.653 C 139.821 217.518,136.818 217.311,136.627 217.193 C 136.437 217.076,135.354 216.863,134.221 216.720 C 133.087 216.578,131.920 216.334,131.626 216.177 C 131.332 216.021,130.524 215.617,129.831 215.281 C 127.524 214.161,126.756 212.844,126.756 210.008 C 126.756 205.134,128.519 203.886,135.405 203.886 C 138.244 203.886,139.768 203.750,140.840 203.399 L 142.331 202.911 141.420 202.357 C 140.863 202.018,140.508 201.555,140.508 201.166 C 140.508 200.371,141.662 195.555,142.007 194.911 C 142.550 193.895,140.721 193.412,135.403 193.165 L 130.477 192.936 128.917 191.914 C 125.852 189.908,124.777 187.627,124.202 181.913 C 123.987 179.776,123.667 176.749,123.490 175.187 C 122.516 166.582,122.207 163.968,121.811 160.982 C 121.571 159.171,121.375 157.128,121.375 156.442 C 121.375 155.757,121.244 154.851,121.084 154.429 L 120.792 153.662 90.019 153.662 L 59.245 153.662 58.424 155.830 C 57.494 158.288,55.945 160.036,53.880 160.960 C 53.087 161.315,52.556 161.768,52.479 162.156 C 52.323 162.941,51.790 184.804,51.394 206.726 C 51.228 215.934,50.971 227.907,50.823 233.333 C 50.676 238.759,50.548 247.533,50.539 252.830 C 50.520 264.519,50.435 264.854,47.473 264.869 C 46.293 264.875,45.147 264.264,44.999 263.551 C 44.838 262.773,43.696 226.301,43.057 201.495 L 42.861 193.871 42.823 204.933 C 42.802 211.016,42.913 217.877,43.068 220.179 C 43.223 222.481,43.470 231.024,43.616 239.163 C 43.763 247.302,44.057 255.828,44.270 258.110 L 44.658 262.258 43.460 263.341 C 42.801 263.937,41.666 264.895,40.938 265.471 C 40.210 266.046,38.315 267.691,36.727 269.126 C 35.042 270.650,33.787 271.583,33.711 271.369 C 33.518 270.825,34.046 233.744,34.350 226.457 C 34.494 223.004,34.635 214.395,34.664 207.324 C 34.693 200.254,34.839 192.855,34.989 190.882 C 35.138 188.909,35.352 181.611,35.465 174.665 L 35.670 162.036 36.686 161.437 C 37.890 160.727,39.327 160.660,39.953 161.286 C 40.200 161.532,40.644 161.734,40.941 161.734 C 41.771 161.734,41.851 162.736,41.883 173.505 C 41.899 178.952,42.092 185.695,42.312 188.490 L 42.712 193.572 42.549 185.052 C 42.273 170.636,42.010 161.788,41.854 161.674 C 39.794 160.177,37.578 159.999,36.106 161.212 L 35.291 161.883 34.976 172.347 C 34.803 178.102,34.536 190.344,34.384 199.552 C 34.231 208.759,33.968 221.943,33.800 228.849 C 33.314 248.753,32.873 270.680,32.879 274.619 C 32.887 279.387,32.659 280.027,30.858 280.297 C 28.956 280.582,28.030 280.035,27.765 278.468 C 27.452 276.613,26.907 261.763,26.893 254.677 C 26.886 251.159,26.754 245.254,26.599 241.555 C 26.445 237.855,26.187 229.245,26.026 222.422 C 25.865 215.598,25.594 206.719,25.423 202.691 C 25.253 198.662,24.968 188.976,24.790 181.166 C 24.368 162.598,24.054 160.239,22.001 160.239 C 21.381 160.239,19.521 158.056,18.690 156.353 C 18.249 155.448,17.793 154.521,17.676 154.291 C 17.559 154.062,16.507 153.564,15.339 153.184 C 9.259 151.210,8.340 143.373,13.844 140.431 L 15.097 139.761 49.826 139.611 C 68.926 139.529,84.655 139.361,84.778 139.238 C 85.245 138.771,84.990 137.174,84.347 136.530 C 83.729 135.911,83.363 135.866,77.827 135.725 L 71.961 135.575 71.332 134.732 C 70.716 133.907,70.022 117.557,70.571 116.813 C 70.664 116.687,75.977 116.620,82.377 116.663 L 94.015 116.741 94.170 117.638 C 94.306 118.430,94.536 118.605,96.133 119.133 C 100.040 120.424,101.046 122.028,101.046 126.959 C 101.046 132.088,99.416 134.210,95.101 134.699 C 93.341 134.898,93.225 134.964,92.209 136.348 C 91.626 137.141,90.787 138.056,90.343 138.382 C 88.732 139.563,89.447 139.621,104.652 139.540 L 119.133 139.462 119.233 138.416 C 119.325 137.457,118.918 133.607,118.034 127.055 C 117.845 125.658,117.611 123.611,117.513 122.508 C 117.331 120.454,116.971 119.877,115.577 119.406 C 113.868 118.829,111.816 115.304,111.812 112.936 C 111.802 108.320,115.129 105.232,120.110 105.232 C 121.765 105.232,122.884 105.098,123.109 104.873 C 123.385 104.597,123.468 93.862,123.468 58.375 C 123.468 7.587,123.330 11.345,125.230 10.313 C 126.232 9.768,270.941 9.642,272.109 10.185 M129.507 15.904 C 129.030 16.381,128.981 102.269,129.457 103.159 C 129.734 103.676,130.110 103.737,133.008 103.737 C 135.525 103.737,136.333 103.837,136.622 104.185 C 137.207 104.891,137.665 104.711,137.699 103.763 C 137.726 102.980,138.143 102.444,139.773 101.097 C 140.271 100.686,145.982 97.758,146.286 97.758 C 146.438 97.758,148.722 96.682,151.362 95.366 C 156.914 92.600,157.035 92.575,157.495 94.108 C 158.265 96.680,160.539 97.764,165.601 97.970 C 171.692 98.219,173.692 96.466,173.692 90.882 C 173.692 87.122,173.871 86.716,176.977 83.408 C 183.084 76.905,182.545 72.374,176.338 78.035 C 172.077 81.921,170.615 82.481,166.284 81.886 C 164.068 81.582,162.965 81.576,161.022 81.857 C 152.200 83.132,148.888 80.912,142.883 69.699 C 137.400 59.463,138.445 47.235,145.413 40.075 C 147.584 37.844,152.497 34.687,153.812 34.678 C 153.976 34.677,154.581 34.389,155.157 34.038 C 155.732 33.686,156.674 33.368,157.250 33.331 C 157.825 33.293,158.901 33.099,159.641 32.898 C 160.411 32.690,163.343 32.503,166.500 32.462 C 170.532 32.409,172.046 32.292,172.136 32.024 C 172.226 31.751,172.346 31.767,172.601 32.084 C 172.904 32.460,177.805 33.718,180.948 34.227 C 181.568 34.327,182.517 34.797,183.057 35.271 C 183.597 35.745,184.435 36.226,184.919 36.339 C 185.403 36.453,186.444 37.168,187.231 37.929 L 188.662 39.312 212.493 39.462 L 236.323 39.611 236.417 40.583 C 236.570 42.170,236.834 42.152,212.157 42.152 L 189.375 42.152 188.686 44.372 C 188.132 46.157,188.064 46.718,188.341 47.236 C 189.792 49.946,190.170 53.231,189.312 55.662 C 188.430 58.164,186.765 57.997,212.633 57.997 C 236.407 57.997,236.472 58.001,236.472 59.336 C 236.472 61.039,237.274 60.987,211.468 60.987 C 198.446 60.987,187.563 61.074,187.284 61.181 C 186.582 61.451,185.276 64.319,185.674 64.718 C 185.874 64.917,194.656 65.076,211.151 65.178 C 224.995 65.263,236.357 65.364,236.398 65.402 C 236.743 65.720,236.374 67.296,235.894 67.553 C 235.509 67.759,226.904 67.864,210.109 67.867 C 196.246 67.870,184.742 67.974,184.546 68.099 C 184.350 68.223,184.054 69.331,183.888 70.560 C 183.723 71.790,183.423 73.722,183.222 74.855 C 182.810 77.184,183.114 77.728,184.830 77.728 C 185.303 77.728,185.983 77.896,186.343 78.102 C 186.804 78.366,189.490 78.519,195.516 78.625 C 203.787 78.770,204.036 78.792,204.036 79.372 C 204.036 79.955,203.778 79.975,194.021 80.146 C 181.464 80.367,181.780 80.304,178.998 83.136 C 177.800 84.354,176.319 85.745,175.705 86.225 L 174.589 87.099 174.589 89.704 C 174.589 92.704,174.732 92.891,177.612 93.668 C 178.498 93.907,179.441 94.193,179.707 94.303 C 179.986 94.418,180.390 94.306,180.658 94.038 C 181.178 93.517,181.937 93.426,182.201 93.853 C 182.296 94.007,182.151 94.259,181.878 94.412 C 181.251 94.762,181.534 95.244,182.510 95.489 C 185.025 96.120,192.052 100.106,195.612 102.920 L 196.456 103.587 230.106 103.666 C 254.874 103.724,263.864 103.655,264.165 103.405 C 264.591 103.052,264.814 17.118,264.393 16.018 C 264.153 15.394,130.130 15.281,129.507 15.904 M264.114 59.553 C 264.107 83.182,264.030 102.587,263.942 102.674 C 263.606 103.011,196.100 102.999,195.879 102.663 C 195.114 101.496,184.635 95.366,183.405 95.366 C 183.160 95.366,182.960 95.232,182.960 95.067 C 182.960 94.870,192.074 94.768,209.705 94.768 C 235.842 94.768,236.458 94.755,236.761 94.190 C 237.339 93.110,237.128 91.868,236.248 91.174 L 235.426 90.525 208.221 90.738 C 178.132 90.972,179.889 90.846,179.612 92.788 C 179.499 93.584,177.730 93.573,176.366 92.768 C 175.507 92.260,175.486 92.190,175.486 89.824 L 175.486 87.401 177.492 85.629 C 178.595 84.654,180.025 83.285,180.669 82.586 L 181.840 81.315 193.064 81.315 C 205.603 81.315,205.381 81.352,205.381 79.286 C 205.381 77.126,205.400 77.130,193.826 77.130 C 182.403 77.130,183.068 77.261,183.865 75.165 C 184.034 74.720,184.289 73.206,184.431 71.801 C 184.806 68.100,181.983 68.461,210.595 68.456 C 238.448 68.451,236.921 68.572,236.921 66.368 C 236.921 64.165,238.409 64.284,210.977 64.279 C 184.175 64.275,185.623 64.379,186.719 62.525 C 187.471 61.251,186.753 61.286,212.732 61.286 C 239.269 61.286,237.070 61.471,237.070 59.234 C 237.070 56.990,238.347 57.100,212.366 57.100 C 199.646 57.100,189.238 57.026,189.238 56.936 C 189.238 56.845,189.460 56.341,189.732 55.816 C 190.388 54.548,190.368 50.509,189.702 49.558 C 189.446 49.193,189.238 48.652,189.238 48.353 C 189.238 48.055,189.026 47.489,188.768 47.095 C 188.380 46.503,188.363 46.257,188.670 45.685 C 188.875 45.304,189.126 44.589,189.227 44.096 L 189.412 43.199 212.432 43.049 C 238.449 42.880,237.070 43.013,237.070 40.687 C 237.070 38.594,238.630 38.723,212.229 38.631 L 188.375 38.548 187.536 37.629 C 187.074 37.123,186.293 36.455,185.800 36.144 C 184.916 35.586,185.269 35.578,210.677 35.577 C 239.523 35.575,237.070 35.766,237.070 33.524 C 237.070 31.130,237.832 31.169,199.267 31.590 L 181.045 31.788 180.369 32.519 C 179.636 33.309,179.258 33.314,175.785 32.574 C 173.483 32.084,173.282 31.937,173.005 30.538 C 172.870 29.856,172.648 29.297,172.511 29.297 C 172.374 29.297,172.180 28.972,172.081 28.574 C 171.821 27.540,168.707 24.858,167.504 24.633 C 166.958 24.530,166.437 24.327,166.347 24.181 C 165.193 22.315,157.297 25.805,156.464 28.550 C 156.364 28.879,156.114 29.350,155.909 29.596 C 155.704 29.843,155.454 30.681,155.353 31.458 C 155.159 32.959,154.477 33.887,153.318 34.228 C 152.621 34.433,150.774 35.310,149.626 35.981 C 137.706 42.946,135.346 58.301,143.968 72.795 C 144.359 73.453,144.802 74.260,144.951 74.589 C 145.101 74.918,145.710 76.223,146.304 77.490 C 146.898 78.757,147.384 79.872,147.384 79.969 C 147.384 80.810,152.659 85.800,153.547 85.800 C 154.282 85.800,155.456 87.475,155.456 88.523 C 155.456 89.274,155.697 89.927,156.193 90.517 C 157.065 91.552,156.823 92.055,155.157 92.672 C 150.368 94.446,139.479 100.063,137.818 101.616 L 136.173 103.153 133.184 103.071 L 130.194 102.990 130.119 59.715 L 130.043 16.441 197.084 16.517 L 264.126 16.592 264.114 59.553 M181.099 25.279 C 179.625 26.079,179.301 27.293,180.281 28.344 C 181.110 29.234,204.049 29.391,204.927 28.513 C 205.792 27.648,205.410 26.022,204.190 25.370 C 202.769 24.610,182.478 24.531,181.099 25.279 M168.111 27.044 C 169.787 28.166,170.936 29.625,171.068 30.798 L 171.151 31.540 167.414 31.561 C 164.063 31.580,162.601 31.739,158.221 32.563 C 156.980 32.796,156.216 31.580,157.217 30.962 C 157.363 30.872,157.565 30.467,157.667 30.062 C 158.572 26.457,164.623 24.708,168.111 27.044 M235.894 32.596 C 236.213 32.767,236.472 33.220,236.472 33.606 C 236.472 35.140,236.686 35.120,219.162 35.222 C 203.321 35.314,196.500 35.142,197.758 34.682 C 200.621 33.636,203.242 32.904,205.232 32.594 C 207.575 32.230,235.212 32.232,235.894 32.596 M88.411 38.391 C 82.871 40.669,75.336 49.311,75.336 53.386 C 75.336 53.769,75.135 54.856,74.888 55.803 C 72.584 64.647,78.008 69.277,85.202 64.606 C 98.372 56.056,101.177 33.141,88.411 38.391 M84.023 44.860 C 86.502 47.432,86.616 50.567,84.365 54.243 C 82.515 57.266,75.548 56.153,76.049 52.915 C 76.382 50.759,78.993 46.338,81.212 44.170 C 82.313 43.095,82.324 43.098,84.023 44.860 M65.075 53.737 C 64.877 54.073,65.335 55.077,66.012 55.788 C 67.465 57.315,68.420 60.607,67.564 61.136 C 66.979 61.497,67.259 62.182,67.990 62.182 C 70.248 62.182,70.398 59.901,68.325 57.078 C 67.428 55.857,66.480 54.555,66.218 54.185 C 65.733 53.500,65.312 53.335,65.075 53.737 M63.378 62.930 C 63.378 63.782,63.491 63.976,63.986 63.976 C 64.823 63.976,65.284 62.762,64.639 62.257 C 63.793 61.596,63.378 61.817,63.378 62.930 M338.477 76.233 C 338.428 76.973,338.294 80.336,338.178 83.707 L 337.967 89.836 325.262 89.924 C 311.122 90.023,311.232 90.037,310.040 88.018 C 307.550 83.797,308.495 77.404,311.918 75.310 C 312.809 74.765,313.492 74.741,325.710 74.812 L 338.565 74.888 338.477 76.233 M180.154 84.743 C 179.519 85.712,179.545 86.156,180.291 87.105 L 180.910 87.892 208.340 87.892 L 235.770 87.892 236.420 87.200 C 237.188 86.384,237.246 85.586,236.605 84.670 L 236.139 84.006 208.388 84.006 L 180.637 84.006 180.154 84.743 M43.348 86.027 C 43.348 86.657,44.428 87.425,44.699 86.987 C 44.799 86.824,44.797 86.423,44.693 86.096 C 44.456 85.350,43.348 85.293,43.348 86.027 M47.968 87.018 C 47.855 87.201,47.408 87.282,46.975 87.197 C 45.603 86.929,44.733 88.023,45.379 89.203 C 47.484 93.047,44.413 100.448,40.713 100.448 C 39.347 100.448,40.580 101.327,42.055 101.405 L 43.752 101.495 44.175 103.288 C 44.407 104.275,44.791 105.889,45.027 106.876 C 45.758 109.931,46.320 112.329,46.761 114.275 C 47.995 119.726,48.348 121.235,49.193 124.664 C 49.415 125.568,49.875 127.519,50.215 128.999 C 50.555 130.478,50.972 132.196,51.141 132.816 C 51.512 134.179,51.337 134.528,50.281 134.533 C 49.175 134.539,48.132 134.844,48.132 135.162 C 48.132 135.307,49.290 135.426,50.705 135.426 L 53.279 135.426 53.063 134.604 C 52.944 134.152,52.678 133.042,52.471 132.138 C 52.265 131.233,51.862 129.484,51.576 128.251 C 51.291 127.018,50.886 125.269,50.676 124.365 C 50.467 123.460,50.132 122.048,49.932 121.226 C 49.075 117.708,48.755 116.356,48.444 114.948 C 48.262 114.126,47.904 112.578,47.648 111.510 C 46.687 107.500,45.918 104.212,45.239 101.196 C 45.137 100.747,45.377 100.452,46.200 100.011 C 49.251 98.378,51.033 94.283,50.096 91.060 C 49.476 88.927,48.240 86.579,47.968 87.018 M38.479 90.401 C 36.140 92.568,37.931 96.430,41.007 95.853 C 44.028 95.286,43.437 89.686,40.356 89.686 C 39.604 89.686,39.003 89.915,38.479 90.401 M42.311 92.168 C 42.665 94.058,41.789 95.354,40.151 95.362 C 37.652 95.374,37.574 91.018,40.060 90.215 C 40.799 89.976,42.113 91.117,42.311 92.168 M349.388 92.081 C 349.653 92.454,350.367 92.633,352.079 92.757 C 362.271 93.492,362.524 106.521,352.371 107.804 C 351.519 107.912,350.572 108.218,350.267 108.484 C 349.762 108.925,347.309 108.958,323.059 108.851 C 296.639 108.735,296.396 108.739,295.214 109.348 C 288.685 112.711,290.079 121.646,297.299 122.708 C 300.099 123.119,300.344 123.767,297.700 123.767 C 291.876 123.767,288.398 118.915,290.130 113.207 C 291.222 109.608,293.471 108.145,297.845 108.190 C 299.827 108.210,301.117 108.075,301.842 107.772 C 302.755 107.390,305.750 107.324,322.189 107.324 C 343.767 107.324,342.480 107.450,344.618 105.129 C 347.620 101.869,347.120 96.846,343.545 94.332 L 342.251 93.423 326.612 93.338 C 311.231 93.255,310.976 93.244,311.127 92.666 C 311.277 92.092,311.610 92.078,324.961 92.078 C 336.630 92.078,338.695 92.013,339.006 91.638 C 339.571 90.958,348.872 91.355,349.388 92.081 M235.894 91.789 C 236.679 92.209,236.631 93.427,235.808 94.004 C 235.221 94.415,232.682 94.465,213.910 94.434 C 188.150 94.392,181.394 94.080,191.928 93.419 C 193.490 93.321,195.441 93.118,196.263 92.967 C 202.442 91.836,234.217 90.892,235.894 91.789 M334.972 109.408 C 335.071 109.568,334.911 110.140,334.616 110.679 C 334.160 111.514,334.081 112.424,334.081 116.816 L 334.081 121.973 317.190 122.047 C 307.900 122.088,299.460 122.101,298.435 122.076 C 291.055 121.897,289.022 112.832,295.678 109.780 C 297.167 109.097,334.561 108.743,334.972 109.408 M94.163 123.039 C 94.003 123.461,93.871 125.201,93.871 126.906 C 93.871 131.676,94.847 132.804,97.128 130.672 C 98.454 129.434,98.552 124.700,97.283 123.192 C 96.246 121.959,94.604 121.879,94.163 123.039 M96.820 123.334 C 98.353 125.283,97.885 130.320,96.119 130.862 C 94.738 131.286,94.768 131.378,94.768 126.707 L 94.768 122.571 95.494 122.571 C 95.916 122.571,96.471 122.890,96.820 123.334 M350.506 123.926 C 350.825 124.167,351.414 124.365,351.816 124.365 C 355.289 124.365,358.471 129.565,357.406 133.499 C 356.253 137.758,353.161 139.322,345.956 139.291 C 340.202 139.267,339.450 139.123,340.480 138.244 C 345.496 133.960,345.670 129.528,340.973 125.638 C 340.013 124.843,340.071 124.023,341.108 123.735 C 342.636 123.310,349.886 123.457,350.506 123.926 M120.377 154.740 C 120.709 155.247,120.913 156.598,121.063 159.293 C 121.180 161.401,121.388 163.306,121.525 163.528 C 121.662 163.749,121.868 165.632,121.984 167.712 C 122.100 169.792,122.346 171.778,122.532 172.125 C 122.718 172.472,122.876 173.942,122.883 175.391 C 122.890 176.841,123.037 178.632,123.210 179.372 C 123.383 180.112,123.631 182.063,123.761 183.707 C 123.988 186.578,124.323 187.639,125.640 189.654 C 126.126 190.398,127.920 192.227,128.163 192.227 C 128.268 192.227,128.566 192.409,128.825 192.631 C 129.881 193.534,132.363 194.021,135.931 194.025 C 140.710 194.031,140.781 194.055,140.498 195.614 C 140.373 196.300,140.111 197.756,139.914 198.850 C 139.718 199.944,139.604 201.356,139.659 201.989 L 139.761 203.139 134.978 203.288 C 131.193 203.407,129.995 203.547,129.239 203.960 C 127.971 204.654,126.759 205.798,126.747 206.312 C 126.742 206.540,126.540 206.988,126.298 207.307 C 124.753 209.350,127.135 216.143,129.397 216.143 C 129.562 216.143,130.078 216.332,130.544 216.563 C 132.546 217.556,137.856 218.294,146.786 218.819 C 149.335 218.969,151.450 219.101,151.487 219.112 C 151.834 219.219,152.466 221.147,152.466 222.097 C 152.466 222.757,152.656 223.874,152.888 224.578 C 153.120 225.283,153.405 226.599,153.521 227.504 C 153.636 228.408,153.844 229.363,153.981 229.625 C 154.119 229.888,154.372 231.098,154.544 232.316 C 154.896 234.815,155.322 237.052,155.907 239.462 C 156.367 241.360,156.851 244.108,157.246 247.057 C 157.398 248.192,157.663 249.262,157.834 249.434 C 158.006 249.605,158.146 250.342,158.146 251.070 L 158.146 252.395 112.631 252.187 C 82.936 252.051,66.647 252.081,65.770 252.274 C 62.106 253.079,59.178 254.177,54.816 256.380 C 51.767 257.920,51.057 258.178,50.912 257.799 C 50.687 257.213,51.074 237.552,51.431 231.390 C 51.579 228.842,51.713 222.788,51.728 217.937 C 51.754 209.674,51.910 202.332,52.596 176.981 C 52.750 171.308,52.885 165.557,52.895 164.200 C 52.913 161.994,52.974 161.734,53.476 161.734 C 53.785 161.734,54.205 161.532,54.410 161.286 C 54.614 161.039,54.956 160.837,55.170 160.837 C 55.679 160.837,58.595 157.558,58.595 156.985 C 58.595 156.741,58.872 155.970,59.210 155.271 L 59.825 154.000 89.865 154.009 L 119.904 154.018 120.377 154.740 M329.416 154.680 C 329.762 154.993,330.045 155.466,330.045 155.731 C 330.045 157.671,334.183 161.734,336.159 161.734 C 336.926 161.734,337.453 171.167,337.819 191.414 C 337.969 199.764,338.165 206.713,338.254 206.856 C 338.342 207.000,338.547 214.092,338.708 222.617 C 338.869 231.142,339.147 240.269,339.326 242.900 C 339.504 245.531,339.608 249.163,339.556 250.972 L 339.462 254.260 319.283 254.162 C 308.184 254.109,291.704 253.938,282.661 253.783 C 273.617 253.628,254.985 253.433,241.256 253.349 C 211.470 253.168,211.357 253.163,211.370 252.066 C 211.375 251.628,211.577 251.009,211.818 250.690 C 212.060 250.371,212.261 249.833,212.267 249.494 C 212.272 249.156,212.474 248.618,212.715 248.299 C 212.956 247.979,213.155 247.509,213.156 247.252 C 213.157 246.996,213.359 246.401,213.604 245.930 C 213.850 245.459,214.051 244.874,214.051 244.630 C 214.051 244.386,214.237 243.762,214.465 243.244 C 214.693 242.726,215.179 241.428,215.546 240.359 C 215.912 239.290,216.398 237.992,216.626 237.474 C 216.854 236.955,217.040 236.249,217.040 235.904 C 217.040 235.559,217.169 235.277,217.326 235.277 C 217.483 235.277,217.704 234.772,217.817 234.155 C 217.930 233.539,218.205 232.769,218.428 232.445 C 218.651 232.120,218.834 231.670,218.834 231.444 C 218.834 231.217,219.021 230.608,219.248 230.090 C 219.476 229.572,219.963 228.274,220.329 227.205 C 220.695 226.136,221.181 224.838,221.409 224.320 C 221.637 223.801,221.824 223.173,221.824 222.924 C 221.824 222.674,222.011 222.089,222.240 221.624 C 222.470 221.158,222.939 220.138,223.283 219.357 C 223.825 218.126,224.026 217.937,224.790 217.937 C 225.275 217.937,226.050 217.790,226.513 217.609 C 226.976 217.429,228.027 217.171,228.849 217.035 C 230.720 216.726,233.184 215.860,233.184 215.510 C 233.184 215.365,233.398 215.247,233.660 215.247 C 234.250 215.247,237.040 213.129,237.058 212.667 C 237.065 212.482,237.272 212.163,237.519 211.958 C 238.180 211.410,238.137 207.426,237.459 206.342 C 235.996 204.005,234.885 203.486,230.946 203.297 L 227.661 203.139 227.470 201.956 C 227.365 201.305,227.127 200.722,226.943 200.660 C 226.758 200.598,226.607 200.370,226.607 200.152 C 226.607 199.729,223.956 196.918,222.717 196.028 C 221.614 195.235,215.887 192.526,215.313 192.526 C 214.352 192.526,214.305 191.610,215.213 190.576 C 215.725 189.993,216.143 189.376,216.143 189.206 C 216.143 189.035,216.345 188.694,216.592 188.448 C 216.839 188.201,217.040 187.693,217.040 187.319 C 217.040 186.945,217.259 186.200,217.527 185.664 C 218.042 184.631,217.939 181.696,217.331 180.097 C 217.171 179.677,217.032 177.963,217.023 176.288 C 217.013 174.614,216.868 172.571,216.701 171.749 C 216.534 170.927,216.282 168.350,216.140 166.022 C 215.999 163.695,215.748 161.273,215.584 160.641 C 215.334 159.677,215.103 155.929,215.215 154.637 C 215.255 154.173,223.379 154.111,283.900 154.111 C 327.620 154.111,328.803 154.125,329.416 154.680 M351.999 160.208 C 352.282 160.666,354.543 161.734,355.241 161.739 C 356.768 161.749,356.527 157.472,357.543 202.691 C 357.711 210.172,358.052 220.396,358.300 225.411 C 358.765 234.779,358.939 253.854,358.565 254.457 C 358.321 254.853,347.700 254.545,347.285 254.130 C 347.148 253.994,347.096 251.478,347.169 248.540 C 347.242 245.602,347.453 234.320,347.638 223.468 C 347.823 212.616,348.109 200.979,348.274 197.608 C 348.440 194.238,348.653 184.888,348.749 176.831 C 348.924 162.203,349.029 160.837,349.985 160.837 C 350.209 160.837,350.470 160.635,350.565 160.389 C 350.752 159.900,351.732 159.777,351.999 160.208 M162.930 194.433 C 162.930 194.495,163.132 194.713,163.378 194.918 C 163.745 195.223,163.827 195.202,163.827 194.805 C 163.827 194.538,163.625 194.320,163.378 194.320 C 163.132 194.320,162.930 194.371,162.930 194.433 M194.652 196.900 C 193.018 197.715,190.728 200.351,190.737 201.407 C 190.748 202.729,191.245 202.756,192.113 201.483 C 193.476 199.484,195.152 197.714,196.131 197.240 C 196.864 196.885,196.956 196.740,196.623 196.463 C 196.308 196.201,195.852 196.303,194.652 196.900 M164.248 198.618 C 164.161 198.845,164.220 199.484,164.380 200.038 L 164.670 201.046 164.697 199.626 C 164.723 198.216,164.551 197.829,164.248 198.618 M164.357 201.720 C 164.261 202.089,163.870 202.505,163.490 202.646 C 162.837 202.888,162.853 202.910,163.774 203.046 C 164.937 203.216,165.071 203.064,164.765 201.920 C 164.546 201.103,164.522 201.091,164.357 201.720 M147.160 202.908 C 147.777 202.973,148.786 202.973,149.402 202.908 C 150.019 202.844,149.514 202.791,148.281 202.791 C 147.048 202.791,146.543 202.844,147.160 202.908 M155.381 202.913 C 156.573 202.969,158.524 202.969,159.716 202.913 C 160.908 202.856,159.933 202.809,157.549 202.809 C 155.164 202.809,154.189 202.856,155.381 202.913 M199.617 223.027 C 196.035 226.167,193.600 226.941,186.547 227.184 L 181.614 227.354 181.633 243.431 L 181.652 259.507 183.013 260.920 C 185.399 263.396,185.949 264.952,185.949 269.228 C 185.949 272.817,186.065 273.244,187.038 273.244 C 187.621 273.244,187.881 272.965,188.359 271.824 C 188.686 271.043,189.421 269.482,189.992 268.355 C 190.564 267.228,191.031 266.099,191.031 265.845 C 191.031 265.591,191.435 264.123,191.928 262.583 C 192.422 261.044,192.825 259.468,192.825 259.081 C 192.825 258.695,193.276 256.982,193.828 255.273 C 195.301 250.710,196.449 246.728,196.877 244.694 C 197.085 243.707,197.481 242.160,197.758 241.256 C 198.034 240.351,198.445 238.737,198.671 237.668 C 198.897 236.599,199.421 234.649,199.835 233.333 C 200.250 232.018,200.591 230.641,200.593 230.274 C 200.596 229.906,200.949 228.426,201.378 226.985 C 203.284 220.581,203.038 220.028,199.617 223.027 M201.673 223.450 C 201.411 224.003,201.196 224.814,201.196 225.252 C 201.196 225.690,201.035 226.342,200.839 226.701 C 200.643 227.060,200.382 227.960,200.259 228.700 C 200.137 229.439,199.622 231.659,199.115 233.632 C 198.231 237.077,197.899 238.292,196.878 241.813 C 196.622 242.695,196.413 243.778,196.413 244.220 C 196.413 244.661,196.287 245.150,196.134 245.306 C 195.846 245.600,195.062 248.483,194.640 250.797 C 194.270 252.827,194.009 252.915,188.324 252.915 C 183.734 252.915,183.277 252.866,182.552 252.295 L 181.764 251.676 181.773 240.262 C 181.780 231.744,181.876 228.727,182.148 228.369 C 182.449 227.974,183.407 227.862,187.595 227.734 C 194.152 227.534,197.749 226.301,200.436 223.332 C 200.740 222.996,201.170 222.720,201.392 222.720 C 201.613 222.720,201.804 222.485,201.817 222.197 C 201.832 221.866,201.898 221.816,201.995 222.059 C 202.080 222.271,201.935 222.897,201.673 223.450 " stroke="none" fill="#bcc5cc" fill-rule="evenodd"></path></g></svg>